<svg width="1445" height="1048" viewBox="0 0 1445 1048" fill="none" xmlns="http://www.w3.org/2000/svg">
<rect width="1445" height="1048" fill="#FFFFE7"/>
<rect x="24" y="48" width="1397" height="2" fill="#C4C4C4"/>
<rect x="24" y="98" width="1397" height="2" fill="#C4C4C4"/>
<rect x="24" y="148" width="1397" height="2" fill="#C4C4C4"/>
<rect x="24" y="198" width="1397" height="2" fill="#C4C4C4"/>
<rect x="24" y="248" width="1397" height="2" fill="#C4C4C4"/>
<rect x="24" y="298" width="1397" height="2" fill="#C4C4C4"/>
<rect x="24" y="348" width="1397" height="2" fill="#C4C4C4"/>
<rect x="24" y="398" width="1397" height="2" fill="#C4C4C4"/>
<rect x="24" y="448" width="1397" height="2" fill="#C4C4C4"/>
<rect x="24" y="498" width="1397" height="2" fill="#C4C4C4"/>
<rect x="24" y="548" width="1397" height="2" fill="#C4C4C4"/>
<rect x="24" y="598" width="1397" height="2" fill="#C4C4C4"/>
<rect x="24" y="648" width="1397" height="2" fill="#C4C4C4"/>
<rect x="24" y="698" width="1397" height="2" fill="#C4C4C4"/>
<rect x="24" y="748" width="1397" height="2" fill="#C4C4C4"/>
<rect x="24" y="798" width="1397" height="2" fill="#C4C4C4"/>
<rect x="24" y="848" width="1397" height="2" fill="#C4C4C4"/>
<rect x="24" y="898" width="1397" height="2" fill="#C4C4C4"/>
<rect x="24" y="948" width="1397" height="2" fill="#C4C4C4"/>
<rect x="24" y="998" width="1397" height="2" fill="#C4C4C4"/>
</svg>
