<svg width="350" height="161" viewBox="0 0 350 161" fill="none" xmlns="http://www.w3.org/2000/svg">
<g clip-path="url(#clip0_16_215)">
<g style="mix-blend-mode:color-dodge">
<g style="mix-blend-mode:color-dodge">
<path d="M44.2354 83.1538H38.0771L27.9879 62.2498L24.2754 83.1538H18.1171L23.5329 52.6488H29.6476L39.7805 73.5964L43.493 52.6488H49.6076L44.2354 83.1538ZM68.8845 83.4593C66.3217 83.4593 64.0506 82.9209 62.071 81.8446C60.1197 80.7388 58.6058 79.2261 57.5284 77.3059C56.451 75.3568 55.9123 73.1311 55.9123 70.6289C55.9123 67.1376 56.684 63.9954 58.2272 61.2024C59.7998 58.4094 61.9541 56.2273 64.6916 54.6562C67.4573 53.0561 70.5583 52.256 73.9946 52.256C76.5857 52.256 78.8568 52.7942 80.8081 53.8707C82.7877 54.9472 84.3164 56.4601 85.3941 58.4094C86.4712 60.3296 87.0101 62.5264 87.0101 64.9992C87.0101 68.5488 86.2381 71.7199 84.6953 74.5129C83.1519 77.3059 80.997 79.5027 78.2312 81.1027C75.4648 82.6738 72.3491 83.4593 68.8845 83.4593ZM69.758 77.8296C71.9418 77.8296 73.8636 77.277 75.5233 76.1713C77.2119 75.0655 78.5074 73.5817 79.4105 71.7199C80.3418 69.8286 80.8081 67.7774 80.8081 65.5665C80.8081 63.181 80.1382 61.3044 78.799 59.9368C77.4592 58.5694 75.5811 57.8857 73.1647 57.8857C71.0099 57.8857 69.0881 58.4384 67.3995 59.544C65.7398 60.6498 64.4437 62.1336 63.5123 63.9954C62.6093 65.8572 62.1583 67.8942 62.1583 70.1052C62.1583 72.4907 62.8135 74.382 64.1238 75.7785C65.463 77.1461 67.3411 77.8296 69.758 77.8296ZM120.891 83.4593C117.834 83.4593 115.315 82.7758 113.335 81.4082C111.384 80.0117 110.409 78.0626 110.409 75.5603C110.409 75.2984 110.438 74.9057 110.496 74.382H116.742C116.626 75.6039 116.945 76.6077 117.703 77.3932C118.489 78.1788 119.624 78.5715 121.109 78.5715C122.594 78.5715 123.759 78.266 124.604 77.6551C125.477 77.0152 125.914 76.1129 125.914 74.9493C125.914 73.873 125.462 73.0144 124.56 72.3745C123.686 71.7346 122.303 71.0216 120.411 70.2361C118.664 69.5089 117.237 68.8396 116.13 68.2286C115.053 67.6176 114.121 66.7737 113.335 65.6974C112.578 64.5917 112.199 63.2099 112.199 61.5515C112.199 59.6602 112.68 58.0166 113.641 56.6201C114.631 55.2236 115.97 54.1471 117.659 53.3906C119.377 52.6342 121.328 52.256 123.512 52.256C125.667 52.256 127.53 52.6197 129.102 53.347C130.703 54.0453 131.897 55.049 132.684 56.3582C133.499 57.6675 133.848 59.1949 133.732 60.9405H127.224L127.268 60.4605C127.268 59.5004 126.904 58.7149 126.176 58.1039C125.477 57.4929 124.487 57.1874 123.206 57.1874C121.837 57.1874 120.731 57.5075 119.887 58.1475C119.042 58.7876 118.62 59.6602 118.62 60.766C118.62 61.4931 118.853 62.1336 119.319 62.6862C119.814 63.2099 120.411 63.6752 121.109 64.0827C121.808 64.4607 122.813 64.9555 124.123 65.5665C125.841 66.3231 127.253 67.0355 128.36 67.7049C129.466 68.3743 130.412 69.2612 131.199 70.367C131.985 71.4728 132.378 72.8257 132.378 74.4256C132.378 76.1713 131.897 77.7276 130.937 79.0952C130.005 80.4628 128.665 81.5391 126.918 82.3247C125.2 83.0813 123.191 83.4593 120.891 83.4593ZM166.286 62.1189C165.995 63.7483 165.34 65.2758 164.321 66.7012C163.301 68.1266 161.889 69.276 160.084 70.1488C158.308 71.0216 156.168 71.458 153.664 71.458H148.553L146.501 83.1538H140.342L145.758 52.6924H156.983C160.099 52.6924 162.457 53.3906 164.059 54.7872C165.66 56.1546 166.461 57.9875 166.461 60.2859C166.461 60.9553 166.402 61.5663 166.286 62.1189ZM154.275 66.6575C155.935 66.6575 157.245 66.25 158.206 65.4356C159.167 64.6211 159.778 63.5154 160.04 62.1189C160.099 61.857 160.128 61.479 160.128 60.9842C160.128 58.6858 158.701 57.5365 155.847 57.5365H151.043L149.427 66.6575H154.275ZM185.564 83.4593C183.002 83.4593 180.731 82.9209 178.751 81.8446C176.8 80.7388 175.286 79.2261 174.209 77.3059C173.131 75.3568 172.592 73.1311 172.592 70.6289C172.592 67.1376 173.364 63.9954 174.907 61.2024C176.48 58.4094 178.635 56.2273 181.371 54.6562C184.138 53.0561 187.239 52.256 190.674 52.256C193.266 52.256 195.537 52.7942 197.488 53.8707C199.468 54.9472 200.997 56.4601 202.074 58.4094C203.152 60.3296 203.69 62.5264 203.69 64.9992C203.69 68.5488 202.919 71.7199 201.375 74.5129C199.832 77.3059 197.677 79.5027 194.911 81.1027C192.145 82.6738 189.03 83.4593 185.564 83.4593ZM186.438 77.8296C188.622 77.8296 190.543 77.277 192.203 76.1713C193.892 75.0655 195.188 73.5817 196.09 71.7199C197.022 69.8286 197.488 67.7774 197.488 65.5665C197.488 63.181 196.819 61.3044 195.479 59.9368C194.14 58.5694 192.262 57.8857 189.845 57.8857C187.69 57.8857 185.769 58.4384 184.079 59.544C182.42 60.6498 181.124 62.1336 180.192 63.9954C179.29 65.8572 178.838 67.8942 178.838 70.1052C178.838 72.4907 179.493 74.382 180.804 75.7785C182.143 77.1461 184.022 77.8296 186.438 77.8296ZM221.473 52.6924L216.101 83.1538H209.943L215.359 52.6924H221.473ZM233.455 78.4842H243.5L242.67 83.1538H226.467L231.882 52.6924H237.997L233.455 78.4842ZM261.581 57.4493L260.183 65.3483H270.447L269.617 70.0615H259.354L257.912 78.3097H269.486L268.613 83.1538H250.88L256.296 52.6488H273.985L273.155 57.4493H261.581ZM295.353 52.6924C298.469 52.6924 300.827 53.4052 302.428 54.8308C304.03 56.2273 304.831 58.0602 304.831 60.3296C304.831 60.8822 304.787 61.4495 304.699 62.0316C304.35 64.0102 303.448 65.8136 301.992 67.4431C300.565 69.043 298.643 70.1635 296.226 70.8034L301.336 83.1538H294.217L289.675 71.2835H286.749L284.652 83.1538H278.494L283.91 52.6924H295.353ZM298.41 62.1625C298.469 61.6388 298.497 61.2897 298.497 61.1151C298.497 60.0093 298.148 59.1513 297.449 58.5403C296.75 57.9293 295.688 57.6238 294.261 57.6238H289.151L287.535 66.7448H292.645C294.276 66.7448 295.571 66.3373 296.532 65.5229C297.522 64.7084 298.148 63.5879 298.41 62.1625ZM322.416 83.4593C319.358 83.4593 316.84 82.7758 314.86 81.4082C312.909 80.0117 311.933 78.0626 311.933 75.5603C311.933 75.2984 311.963 74.9057 312.021 74.382H318.266C318.15 75.6039 318.471 76.6077 319.227 77.3932C320.013 78.1788 321.149 78.5715 322.634 78.5715C324.119 78.5715 325.284 78.266 326.128 77.6551C327.002 77.0152 327.438 76.1129 327.438 74.9493C327.438 73.873 326.987 73.0144 326.084 72.3745C325.211 71.7346 323.828 71.0216 321.935 70.2361C320.188 69.5089 318.761 68.8396 317.655 68.2286C316.578 67.6176 315.646 66.7737 314.86 65.6974C314.103 64.5917 313.724 63.2099 313.724 61.5515C313.724 59.6602 314.204 58.0166 315.165 56.6201C316.156 55.2236 317.495 54.1471 319.184 53.3906C320.902 52.6342 322.852 52.256 325.036 52.256C327.191 52.256 329.054 52.6197 330.627 53.347C332.229 54.0453 333.422 55.049 334.208 56.3582C335.024 57.6675 335.373 59.1949 335.256 60.9405H328.749L328.792 60.4605C328.792 59.5004 328.429 58.7149 327.7 58.1039C327.002 57.4929 326.012 57.1874 324.73 57.1874C323.362 57.1874 322.256 57.5075 321.411 58.1475C320.567 58.7876 320.144 59.6602 320.144 60.766C320.144 61.4931 320.377 62.1336 320.843 62.6862C321.338 63.2099 321.935 63.6752 322.634 64.0827C323.333 64.4607 324.337 64.9555 325.648 65.5665C327.366 66.3231 328.778 67.0355 329.884 67.7049C330.991 68.3743 331.937 69.2612 332.723 70.367C333.509 71.4728 333.902 72.8257 333.902 74.4256C333.902 76.1713 333.422 77.7276 332.461 79.0952C331.53 80.4628 330.19 81.5391 328.443 82.3247C326.725 83.0813 324.716 83.4593 322.416 83.4593Z" fill="#FF5ABD"/>
</g>
</g>
<g style="mix-blend-mode:color-dodge" filter="url(#filter0_d_16_215)">
<g style="mix-blend-mode:color-dodge">
<path d="M40.6942 83.1538H34.5358L24.4466 62.2498L20.7342 83.1538H14.5758L19.9917 52.6488H26.1063L36.2392 73.5964L39.9517 52.6488H46.0664L40.6942 83.1538ZM65.3432 83.4593C62.7805 83.4593 60.5093 82.9209 58.5294 81.8446C56.5786 80.7388 55.0645 79.2261 53.9871 77.3059C52.9098 75.3568 52.3711 73.1311 52.3711 70.6289C52.3711 67.1376 53.1427 63.9954 54.6859 61.2024C56.2583 58.4094 58.413 56.2273 61.1503 54.6562C63.9161 53.0561 67.0171 52.256 70.4533 52.256C73.0444 52.256 75.3156 52.7942 77.2668 53.8707C79.2464 54.9472 80.7751 56.4601 81.8528 58.4094C82.93 60.3296 83.4689 62.5264 83.4689 64.9992C83.4689 68.5488 82.6969 71.7199 81.154 74.5129C79.6106 77.3059 77.4557 79.5027 74.6899 81.1027C71.9236 82.6738 68.8078 83.4593 65.3432 83.4593ZM66.2167 77.8296C68.4006 77.8296 70.3223 77.277 71.982 76.1713C73.6706 75.0655 74.9662 73.5817 75.8692 71.7199C76.8006 69.8286 77.2668 67.7774 77.2668 65.5665C77.2668 63.181 76.5969 61.3044 75.2577 59.9368C73.9179 58.5694 72.0398 57.8857 69.6235 57.8857C67.4686 57.8857 65.5468 58.4384 63.8582 59.544C62.1985 60.6498 60.9024 62.1336 59.971 63.9954C59.068 65.8572 58.6168 67.8942 58.6168 70.1052C58.6168 72.4907 59.2722 74.382 60.5825 75.7785C61.9217 77.1461 63.7998 77.8296 66.2167 77.8296ZM117.35 83.4593C114.292 83.4593 111.774 82.7758 109.794 81.4082C107.843 80.0117 106.868 78.0626 106.868 75.5603C106.868 75.2984 106.896 74.9057 106.955 74.382H113.201C113.084 75.6039 113.404 76.6077 114.161 77.3932C114.948 78.1788 116.083 78.5715 117.568 78.5715C119.053 78.5715 120.218 78.266 121.062 77.6551C121.936 77.0152 122.373 76.1129 122.373 74.9493C122.373 73.873 121.921 73.0144 121.019 72.3745C120.145 71.7346 118.762 71.0216 116.869 70.2361C115.122 69.5089 113.696 68.8396 112.589 68.2286C111.512 67.6176 110.58 66.7737 109.794 65.6974C109.037 64.5917 108.658 63.2099 108.658 61.5515C108.658 59.6602 109.139 58.0166 110.1 56.6201C111.089 55.2236 112.429 54.1471 114.118 53.3906C115.836 52.6342 117.787 52.256 119.97 52.256C122.125 52.256 123.989 52.6197 125.561 53.347C127.162 54.0453 128.356 55.049 129.142 56.3582C129.957 57.6675 130.307 59.1949 130.191 60.9405H123.683L123.727 60.4605C123.727 59.5004 123.362 58.7149 122.635 58.1039C121.936 57.4929 120.946 57.1874 119.665 57.1874C118.296 57.1874 117.19 57.5075 116.345 58.1475C115.501 58.7876 115.079 59.6602 115.079 60.766C115.079 61.4931 115.312 62.1336 115.777 62.6862C116.273 63.2099 116.869 63.6752 117.568 64.0827C118.267 64.4607 119.272 64.9555 120.582 65.5665C122.3 66.3231 123.712 67.0355 124.818 67.7049C125.925 68.3743 126.871 69.2612 127.657 70.367C128.444 71.4728 128.837 72.8257 128.837 74.4256C128.837 76.1713 128.356 77.7276 127.395 79.0952C126.463 80.4628 125.124 81.5391 123.377 82.3247C121.659 83.0813 119.65 83.4593 117.35 83.4593ZM162.745 62.1189C162.454 63.7483 161.799 65.2758 160.779 66.7012C159.76 68.1266 158.348 69.276 156.543 70.1488C154.767 71.0216 152.627 71.458 150.122 71.458H145.012L142.959 83.1538H136.801L142.217 52.6924H153.442C156.557 52.6924 158.916 53.3906 160.517 54.7872C162.119 56.1546 162.919 57.9875 162.919 60.2859C162.919 60.9553 162.861 61.5663 162.745 62.1189ZM150.734 66.6575C152.393 66.6575 153.704 66.25 154.665 65.4356C155.626 64.6211 156.237 63.5154 156.499 62.1189C156.557 61.857 156.586 61.479 156.586 60.9842C156.586 58.6858 155.16 57.5365 152.306 57.5365H147.502L145.886 66.6575H150.734ZM182.023 83.4593C179.461 83.4593 177.19 82.9209 175.21 81.8446C173.259 80.7388 171.745 79.2261 170.667 77.3059C169.59 75.3568 169.051 73.1311 169.051 70.6289C169.051 67.1376 169.823 63.9954 171.366 61.2024C172.938 58.4094 175.093 56.2273 177.83 54.6562C180.597 53.0561 183.698 52.256 187.133 52.256C189.725 52.256 191.996 52.7942 193.947 53.8707C195.927 54.9472 197.456 56.4601 198.533 58.4094C199.61 60.3296 200.149 62.5264 200.149 64.9992C200.149 68.5488 199.377 71.7199 197.834 74.5129C196.291 77.3059 194.136 79.5027 191.37 81.1027C188.604 82.6738 185.488 83.4593 182.023 83.4593ZM182.897 77.8296C185.08 77.8296 187.002 77.277 188.662 76.1713C190.351 75.0655 191.647 73.5817 192.549 71.7199C193.481 69.8286 193.947 67.7774 193.947 65.5665C193.947 63.181 193.277 61.3044 191.938 59.9368C190.598 58.5694 188.72 57.8857 186.303 57.8857C184.149 57.8857 182.227 58.4384 180.538 59.544C178.878 60.6498 177.583 62.1336 176.651 63.9954C175.748 65.8572 175.297 67.8942 175.297 70.1052C175.297 72.4907 175.952 74.382 177.262 75.7785C178.602 77.1461 180.48 77.8296 182.897 77.8296ZM217.932 52.6924L212.56 83.1538H206.401L211.817 52.6924H217.932ZM229.913 78.4842H239.959L239.129 83.1538H222.925L228.341 52.6924H234.456L229.913 78.4842ZM258.04 57.4493L256.642 65.3483H266.906L266.076 70.0615H255.812L254.371 78.3097H265.945L265.072 83.1538H247.339L252.755 52.6488H270.444L269.614 57.4493H258.04ZM291.812 52.6924C294.927 52.6924 297.286 53.4052 298.887 54.8308C300.489 56.2273 301.289 58.0602 301.289 60.3296C301.289 60.8822 301.246 61.4495 301.158 62.0316C300.809 64.0102 299.906 65.8136 298.45 67.4431C297.024 69.043 295.102 70.1635 292.685 70.8034L297.795 83.1538H290.676L286.134 71.2835H283.207L281.111 83.1538H274.953L280.368 52.6924H291.812ZM294.869 62.1625C294.927 61.6388 294.956 61.2897 294.956 61.1151C294.956 60.0093 294.607 59.1513 293.908 58.5403C293.209 57.9293 292.147 57.6238 290.72 57.6238H285.61L283.993 66.7448H289.104C290.734 66.7448 292.03 66.3373 292.991 65.5229C293.981 64.7084 294.607 63.5879 294.869 62.1625ZM318.874 83.4593C315.817 83.4593 313.298 82.7758 311.318 81.4082C309.368 80.0117 308.392 78.0626 308.392 75.5603C308.392 75.2984 308.421 74.9057 308.479 74.382H314.725C314.609 75.6039 314.929 76.6077 315.686 77.3932C316.472 78.1788 317.608 78.5715 319.093 78.5715C320.578 78.5715 321.743 78.266 322.587 77.6551C323.46 77.0152 323.897 76.1129 323.897 74.9493C323.897 73.873 323.446 73.0144 322.543 72.3745C321.67 71.7346 320.287 71.0216 318.394 70.2361C316.647 69.5089 315.22 68.8396 314.114 68.2286C313.036 67.6176 312.104 66.7737 311.318 65.6974C310.562 64.5917 310.183 63.2099 310.183 61.5515C310.183 59.6602 310.663 58.0166 311.624 56.6201C312.614 55.2236 313.954 54.1471 315.642 53.3906C317.36 52.6342 319.311 52.256 321.495 52.256C323.65 52.256 325.513 52.6197 327.085 53.347C328.687 54.0453 329.881 55.049 330.667 56.3582C331.483 57.6675 331.832 59.1949 331.715 60.9405H325.207L325.251 60.4605C325.251 59.5004 324.887 58.7149 324.159 58.1039C323.46 57.4929 322.47 57.1874 321.189 57.1874C319.821 57.1874 318.714 57.5075 317.87 58.1475C317.026 58.7876 316.603 59.6602 316.603 60.766C316.603 61.4931 316.836 62.1336 317.302 62.6862C317.797 63.2099 318.394 63.6752 319.093 64.0827C319.791 64.4607 320.796 64.9555 322.106 65.5665C323.824 66.3231 325.237 67.0355 326.343 67.7049C327.45 68.3743 328.396 69.2612 329.182 70.367C329.968 71.4728 330.361 72.8257 330.361 74.4256C330.361 76.1713 329.881 77.7276 328.92 79.0952C327.988 80.4628 326.649 81.5391 324.902 82.3247C323.184 83.0813 321.175 83.4593 318.874 83.4593Z" fill="#3965FF"/>
</g>
</g>
<g style="mix-blend-mode:color-dodge" filter="url(#filter1_d_16_215)">
<g style="mix-blend-mode:color-dodge">
<path d="M43.6452 84.9231H37.4869L27.3977 64.0191L23.6852 84.9231H17.5269L22.9427 54.418H29.0574L39.1903 75.3657L42.9027 54.418H49.0174L43.6452 84.9231ZM68.2943 85.2286C65.7315 85.2286 63.4604 84.6902 61.4808 83.6139C59.5295 82.5081 58.0155 80.9954 56.9382 79.0752C55.8608 77.1261 55.3221 74.9004 55.3221 72.3981C55.3221 68.9069 56.0938 65.7647 57.637 62.9717C59.2096 60.1787 61.3639 57.9966 64.1014 56.4255C66.8671 54.8254 69.9681 54.0253 73.4044 54.0253C75.9954 54.0253 78.2666 54.5635 80.2179 55.64C82.1975 56.7164 83.7261 58.2294 84.8039 60.1787C85.881 62.0989 86.4199 64.2957 86.4199 66.7685C86.4199 70.3181 85.6479 73.4892 84.1051 76.2822C82.5616 79.0752 80.4067 81.272 77.641 82.872C74.8746 84.4431 71.7588 85.2286 68.2943 85.2286ZM69.1678 79.5989C71.3516 79.5989 73.2734 79.0463 74.933 77.9406C76.6217 76.8348 77.9172 75.351 78.8202 73.4892C79.7516 71.5979 80.2179 69.5467 80.2179 67.3358C80.2179 64.9503 79.548 63.0737 78.2088 61.7061C76.869 60.3385 74.9909 59.655 72.5745 59.655C70.4196 59.655 68.4979 60.2076 66.8093 61.3133C65.1496 62.4191 63.8535 63.9029 62.9221 65.7647C62.0191 67.6265 61.5681 69.6635 61.5681 71.8744C61.5681 74.26 62.2233 76.1513 63.5336 77.5478C64.8728 78.9154 66.7508 79.5989 69.1678 79.5989ZM120.301 85.2286C117.244 85.2286 114.725 84.5451 112.745 83.1775C110.794 81.781 109.819 79.8319 109.819 77.3296C109.819 77.0677 109.847 76.675 109.906 76.1513H116.152C116.035 77.3732 116.355 78.377 117.112 79.1625C117.899 79.948 119.034 80.3408 120.519 80.3408C122.004 80.3408 123.169 80.0353 124.013 79.4243C124.887 78.7845 125.324 77.8822 125.324 76.7186C125.324 75.6423 124.872 74.7837 123.97 74.1438C123.096 73.5039 121.713 72.7909 119.82 72.0054C118.073 71.2782 116.647 70.6089 115.54 69.9979C114.463 69.3869 113.531 68.543 112.745 67.4667C111.988 66.3609 111.609 64.9792 111.609 63.3208C111.609 61.4295 112.09 59.7859 113.051 58.3894C114.04 56.9929 115.38 55.9164 117.069 55.1599C118.787 54.4035 120.738 54.0253 122.921 54.0253C125.076 54.0253 126.94 54.389 128.512 55.1163C130.113 55.8145 131.307 56.8183 132.093 58.1275C132.909 59.4368 133.258 60.9642 133.142 62.7098H126.634L126.678 62.2298C126.678 61.2697 126.313 60.4841 125.586 59.8732C124.887 59.2622 123.897 58.9567 122.616 58.9567C121.247 58.9567 120.141 59.2769 119.296 59.9168C118.452 60.5567 118.03 61.4295 118.03 62.5353C118.03 63.2624 118.263 63.9029 118.729 64.4555C119.224 64.9792 119.82 65.4445 120.519 65.852C121.218 66.23 122.223 66.7248 123.533 67.3358C125.251 68.0924 126.663 68.8048 127.769 69.4742C128.876 70.1436 129.822 71.0305 130.608 72.1363C131.395 73.2421 131.788 74.5949 131.788 76.1949C131.788 77.9406 131.307 79.4969 130.346 80.8645C129.414 82.2321 128.075 83.3084 126.328 84.0939C124.61 84.8506 122.601 85.2286 120.301 85.2286ZM165.696 63.8881C165.405 65.5176 164.75 67.045 163.73 68.4704C162.711 69.8959 161.299 71.0453 159.494 71.9181C157.718 72.7909 155.578 73.2273 153.073 73.2273H147.963L145.91 84.9231H139.752L145.168 54.4617H156.393C159.509 54.4617 161.867 55.1599 163.468 56.5564C165.07 57.9239 165.87 59.757 165.87 62.0552C165.87 62.7246 165.812 63.3356 165.696 63.8881ZM153.685 68.4268C155.345 68.4268 156.655 68.0193 157.616 67.2049C158.577 66.3904 159.188 65.2847 159.45 63.8881C159.509 63.6263 159.537 63.2483 159.537 62.7535C159.537 60.4552 158.111 59.3058 155.257 59.3058H150.453L148.837 68.4268H153.685ZM184.974 85.2286C182.412 85.2286 180.141 84.6902 178.161 83.6139C176.21 82.5081 174.696 80.9954 173.618 79.0752C172.541 77.1261 172.002 74.9004 172.002 72.3981C172.002 68.9069 172.774 65.7647 174.317 62.9717C175.889 60.1787 178.044 57.9966 180.781 56.4255C183.548 54.8254 186.649 54.0253 190.084 54.0253C192.676 54.0253 194.947 54.5635 196.898 55.64C198.878 56.7164 200.407 58.2294 201.484 60.1787C202.561 62.0989 203.1 64.2957 203.1 66.7685C203.1 70.3181 202.328 73.4892 200.785 76.2822C199.242 79.0752 197.087 81.272 194.321 82.872C191.555 84.4431 188.439 85.2286 184.974 85.2286ZM185.848 79.5989C188.031 79.5989 189.953 79.0463 191.613 77.9406C193.302 76.8348 194.598 75.351 195.5 73.4892C196.432 71.5979 196.898 69.5467 196.898 67.3358C196.898 64.9503 196.228 63.0737 194.889 61.7061C193.549 60.3385 191.671 59.655 189.254 59.655C187.1 59.655 185.178 60.2076 183.489 61.3133C181.829 62.4191 180.534 63.9029 179.602 65.7647C178.699 67.6265 178.248 69.6635 178.248 71.8744C178.248 74.26 178.903 76.1513 180.213 77.5478C181.553 78.9154 183.431 79.5989 185.848 79.5989ZM220.883 54.4617L215.511 84.9231H209.353L214.768 54.4617H220.883ZM232.864 80.2535H242.91L242.08 84.9231H225.876L231.292 54.4617H237.407L232.864 80.2535ZM260.991 59.2186L259.593 67.1176H269.857L269.027 71.8308H258.763L257.322 80.079H268.896L268.023 84.9231H250.29L255.706 54.418H273.395L272.565 59.2186H260.991ZM294.763 54.4617C297.878 54.4617 300.237 55.1745 301.838 56.6001C303.44 57.9966 304.24 59.8295 304.24 62.0989C304.24 62.6514 304.197 63.2188 304.109 63.8009C303.76 65.7794 302.857 67.5829 301.401 69.2123C299.975 70.8123 298.053 71.9328 295.636 72.5727L300.746 84.9231H293.627L289.085 73.0528H286.158L284.062 84.9231H277.904L283.319 54.4617H294.763ZM297.82 63.9318C297.878 63.4081 297.907 63.059 297.907 62.8844C297.907 61.7786 297.558 60.9206 296.859 60.3096C296.16 59.6986 295.098 59.3931 293.671 59.3931H288.561L286.945 68.5141H292.055C293.685 68.5141 294.981 68.1066 295.942 67.2921C296.932 66.4777 297.558 65.3572 297.82 63.9318ZM321.825 85.2286C318.768 85.2286 316.249 84.5451 314.269 83.1775C312.319 81.781 311.343 79.8319 311.343 77.3296C311.343 77.0677 311.372 76.675 311.43 76.1513H317.676C317.56 77.3732 317.88 78.377 318.637 79.1625C319.423 79.948 320.559 80.3408 322.044 80.3408C323.529 80.3408 324.694 80.0353 325.538 79.4243C326.411 78.7845 326.848 77.8822 326.848 76.7186C326.848 75.6423 326.397 74.7837 325.494 74.1438C324.621 73.5039 323.238 72.7909 321.345 72.0054C319.598 71.2782 318.171 70.6089 317.065 69.9979C315.987 69.3869 315.055 68.543 314.269 67.4667C313.513 66.3609 313.134 64.9792 313.134 63.3208C313.134 61.4295 313.614 59.7859 314.575 58.3894C315.565 56.9929 316.905 55.9164 318.593 55.1599C320.311 54.4035 322.262 54.0253 324.446 54.0253C326.601 54.0253 328.464 54.389 330.036 55.1163C331.638 55.8145 332.832 56.8183 333.618 58.1275C334.434 59.4368 334.783 60.9642 334.666 62.7098H328.158L328.202 62.2298C328.202 61.2697 327.838 60.4841 327.11 59.8732C326.411 59.2622 325.421 58.9567 324.14 58.9567C322.772 58.9567 321.665 59.2769 320.821 59.9168C319.977 60.5567 319.554 61.4295 319.554 62.5353C319.554 63.2624 319.787 63.9029 320.253 64.4555C320.748 64.9792 321.345 65.4445 322.044 65.852C322.742 66.23 323.747 66.7248 325.057 67.3358C326.775 68.0924 328.188 68.8048 329.294 69.4742C330.401 70.1436 331.347 71.0305 332.133 72.1363C332.919 73.2421 333.312 74.5949 333.312 76.1949C333.312 77.9406 332.832 79.4969 331.871 80.8645C330.939 82.2321 329.6 83.3084 327.853 84.0939C326.135 84.8506 324.126 85.2286 321.825 85.2286Z" fill="#EDFF1F"/>
</g>
</g>
<g style="mix-blend-mode:color-dodge" filter="url(#filter2_d_16_215)">
<g style="mix-blend-mode:color-dodge">
<path d="M42.4648 86.6923H36.3065L26.2173 65.7882L22.5048 86.6923H16.3464L21.7623 56.1872H27.877L38.0098 77.1349L41.7223 56.1872H47.837L42.4648 86.6923ZM67.1138 86.9978C64.5511 86.9978 62.28 86.4593 60.3004 85.3831C58.3492 84.2773 56.8351 82.7646 55.7577 80.8444C54.6804 78.8953 54.1417 76.6696 54.1417 74.1673C54.1417 70.676 54.9134 67.5339 56.4566 64.7408C58.0289 61.9478 60.1835 59.7658 62.9209 58.1947C65.6867 56.5945 68.7877 55.7944 72.224 55.7944C74.815 55.7944 77.0862 56.3327 79.0375 57.4092C81.0171 58.4856 82.5457 59.9987 83.6235 61.9478C84.7006 63.868 85.2395 66.0648 85.2395 68.5376C85.2395 72.0873 84.4675 75.2583 82.9246 78.0514C81.3812 80.8444 79.2263 83.0412 76.4606 84.6412C73.6942 86.2122 70.5784 86.9978 67.1138 86.9978ZM67.9874 81.3681C70.1712 81.3681 72.0929 80.8155 73.7526 79.7097C75.4413 78.604 76.7368 77.1202 77.6398 75.2583C78.5712 73.367 79.0375 71.3159 79.0375 69.1049C79.0375 66.7194 78.3676 64.8429 77.0284 63.4753C75.6886 62.1076 73.8105 61.4241 71.3941 61.4241C69.2392 61.4241 67.3175 61.9767 65.6289 63.0825C63.9692 64.1883 62.673 65.6721 61.7417 67.5339C60.8386 69.3957 60.3877 71.4327 60.3877 73.6436C60.3877 76.0291 61.0429 77.9204 62.3531 79.317C63.6923 80.6846 65.5704 81.3681 67.9874 81.3681ZM119.12 86.9978C116.063 86.9978 113.545 86.3143 111.564 84.9466C109.614 83.5501 108.638 81.601 108.638 79.0987C108.638 78.8369 108.667 78.4441 108.725 77.9204H114.971C114.855 79.1424 115.175 80.1461 115.932 80.9317C116.718 81.7172 117.854 82.11 119.339 82.11C120.824 82.11 121.988 81.8045 122.833 81.1935C123.706 80.5536 124.143 79.6513 124.143 78.4878C124.143 77.4115 123.692 76.5528 122.789 75.913C121.916 75.2731 120.533 74.5601 118.64 73.7745C116.893 73.0474 115.466 72.378 114.36 71.7671C113.283 71.1561 112.351 70.3122 111.564 69.2359C110.807 68.1301 110.429 66.7483 110.429 65.09C110.429 63.1987 110.909 61.5551 111.87 60.1585C112.86 58.762 114.2 57.6856 115.888 56.9291C117.607 56.1726 119.557 55.7944 121.741 55.7944C123.896 55.7944 125.759 56.1581 127.332 56.8855C128.933 57.5837 130.127 58.5875 130.913 59.8967C131.728 61.2059 132.078 62.7334 131.961 64.479H125.453L125.497 63.9989C125.497 63.0388 125.133 62.2533 124.405 61.6423C123.706 61.0314 122.717 60.7259 121.435 60.7259C120.067 60.7259 118.96 61.0461 118.116 61.686C117.271 62.3258 116.849 63.1987 116.849 64.3044C116.849 65.0316 117.082 65.672 117.548 66.2246C118.043 66.7483 118.64 67.2136 119.339 67.6212C120.038 67.9992 121.042 68.494 122.352 69.1049C124.071 69.8616 125.482 70.574 126.589 71.2434C127.696 71.9127 128.642 72.7997 129.428 73.9055C130.214 75.0112 130.607 76.3641 130.607 77.9641C130.607 79.7097 130.127 81.2661 129.166 82.6337C128.234 84.0013 126.895 85.0776 125.148 85.8631C123.43 86.6197 121.421 86.9978 119.12 86.9978ZM164.515 65.6573C164.224 67.2868 163.569 68.8142 162.55 70.2396C161.531 71.665 160.119 72.8144 158.313 73.6873C156.537 74.5601 154.397 74.9965 151.893 74.9965H146.783L144.73 86.6923H138.572L143.988 56.2308H155.212C158.328 56.2308 160.687 56.9291 162.288 58.3256C163.889 59.6932 164.69 61.5262 164.69 63.8244C164.69 64.4937 164.632 65.1047 164.515 65.6573ZM152.504 70.196C154.164 70.196 155.474 69.7885 156.435 68.974C157.396 68.1596 158.008 67.0538 158.27 65.6573C158.328 65.3955 158.357 65.0174 158.357 64.5226C158.357 62.2244 156.93 61.075 154.077 61.075H149.272L147.656 70.196H152.504ZM183.794 86.9978C181.232 86.9978 178.96 86.4593 176.98 85.3831C175.03 84.2773 173.516 82.7646 172.438 80.8444C171.361 78.8953 170.822 76.6696 170.822 74.1673C170.822 70.676 171.594 67.5339 173.137 64.7408C174.709 61.9478 176.864 59.7658 179.601 58.1947C182.367 56.5945 185.468 55.7944 188.904 55.7944C191.495 55.7944 193.767 56.3327 195.717 57.4092C197.698 58.4856 199.226 59.9987 200.303 61.9478C201.381 63.868 201.919 66.0648 201.919 68.5376C201.919 72.0873 201.148 75.2583 199.605 78.0514C198.062 80.8444 195.907 83.0412 193.14 84.6412C190.375 86.2122 187.259 86.9978 183.794 86.9978ZM184.667 81.3681C186.851 81.3681 188.773 80.8155 190.432 79.7097C192.122 78.604 193.417 77.1202 194.32 75.2583C195.252 73.367 195.717 71.3159 195.717 69.1049C195.717 66.7194 195.048 64.8429 193.708 63.4753C192.369 62.1076 190.491 61.4241 188.074 61.4241C185.92 61.4241 183.998 61.9767 182.309 63.0825C180.649 64.1883 179.353 65.6721 178.422 67.5339C177.519 69.3957 177.068 71.4327 177.068 73.6436C177.068 76.0291 177.723 77.9204 179.033 79.317C180.373 80.6846 182.251 81.3681 184.667 81.3681ZM219.703 56.2308L214.33 86.6923H208.172L213.588 56.2308H219.703ZM231.684 82.0227H241.73L240.9 86.6923H224.696L230.112 56.2308H236.226L231.684 82.0227ZM259.81 60.9877L258.413 68.8867H268.677L267.847 73.6H257.583L256.142 81.8481H267.716L266.842 86.6923H249.11L254.526 56.1872H272.214L271.385 60.9877H259.81ZM293.582 56.2308C296.698 56.2308 299.056 56.9437 300.658 58.3693C302.26 59.7658 303.06 61.5987 303.06 63.868C303.06 64.4206 303.016 64.9879 302.929 65.57C302.579 67.5486 301.677 69.3521 300.221 70.9815C298.794 72.5815 296.873 73.702 294.456 74.3419L299.566 86.6923H292.447L287.904 74.8219H284.978L282.881 86.6923H276.723L282.139 56.2308H293.582ZM296.64 65.7009C296.698 65.1773 296.727 64.8281 296.727 64.6536C296.727 63.5478 296.377 62.6897 295.679 62.0787C294.98 61.4678 293.917 61.1623 292.49 61.1623H287.38L285.764 70.2833H290.874C292.505 70.2833 293.801 69.8757 294.761 69.0613C295.752 68.2469 296.377 67.1264 296.64 65.7009ZM320.645 86.9978C317.588 86.9978 315.069 86.3143 313.089 84.9466C311.138 83.5501 310.163 81.601 310.163 79.0987C310.163 78.8369 310.192 78.4441 310.25 77.9204H316.496C316.379 79.1424 316.7 80.1461 317.457 80.9317C318.243 81.7172 319.378 82.11 320.863 82.11C322.348 82.11 323.513 81.8045 324.357 81.1935C325.231 80.5536 325.668 79.6513 325.668 78.4878C325.668 77.4115 325.217 76.5528 324.314 75.913C323.44 75.2731 322.057 74.5601 320.164 73.7745C318.417 73.0474 316.991 72.378 315.884 71.7671C314.807 71.1561 313.875 70.3122 313.089 69.2359C312.332 68.1301 311.953 66.7483 311.953 65.09C311.953 63.1987 312.434 61.5551 313.395 60.1585C314.385 58.762 315.724 57.6856 317.413 56.9291C319.131 56.1726 321.082 55.7944 323.265 55.7944C325.42 55.7944 327.284 56.1581 328.856 56.8855C330.458 57.5837 331.651 58.5875 332.437 59.8967C333.253 61.2059 333.603 62.7334 333.486 64.479H326.978L327.022 63.9989C327.022 63.0388 326.658 62.2533 325.93 61.6423C325.231 61.0314 324.241 60.7259 322.96 60.7259C321.592 60.7259 320.485 61.0461 319.64 61.686C318.796 62.3258 318.374 63.1987 318.374 64.3044C318.374 65.0316 318.607 65.672 319.073 66.2246C319.568 66.7483 320.164 67.2136 320.863 67.6212C321.562 67.9992 322.567 68.494 323.877 69.1049C325.595 69.8616 327.007 70.574 328.114 71.2434C329.22 71.9127 330.166 72.7997 330.953 73.9055C331.739 75.0112 332.132 76.3641 332.132 77.9641C332.132 79.7097 331.651 81.2661 330.69 82.6337C329.759 84.0013 328.419 85.0776 326.672 85.8631C324.955 86.6197 322.946 86.9978 320.645 86.9978Z" fill="#5AFFBA"/>
</g>
</g>
<g style="mix-blend-mode:color-dodge" opacity="0.9">
<g style="mix-blend-mode:color-dodge" opacity="0.9">
<g style="mix-blend-mode:color-dodge" opacity="0.9">
<path d="M41.2843 84.3333V84.923H41.7797L41.8656 84.4353L41.2843 84.3333ZM35.126 84.3333L34.5943 84.5892L34.7553 84.923H35.126V84.3333ZM25.0367 63.4292L25.5684 63.1733L24.7748 61.5291L24.4556 63.326L25.0367 63.4292ZM21.3243 84.3333V84.923H21.819L21.9054 84.4365L21.3243 84.3333ZM15.1659 84.3333L14.5848 84.2301L14.4618 84.923H15.1659V84.3333ZM20.5818 53.8282V53.2385H20.0871L20.0006 53.7252L20.5818 53.8282ZM26.6964 53.8282L27.2279 53.5716L27.0667 53.2385H26.6964V53.8282ZM36.8293 74.7759L36.298 75.0324L37.0922 76.6749L37.4105 74.8785L36.8293 74.7759ZM40.5418 53.8282V53.2385H40.0469L39.9606 53.7254L40.5418 53.8282ZM46.6565 53.8282L47.2378 53.9304L47.3596 53.2385H46.6565V53.8282ZM41.2843 83.7435H35.126V84.923H41.2843V83.7435ZM35.6576 84.0773L25.5684 63.1733L24.5051 63.6852L34.5943 84.5892L35.6576 84.0773ZM24.4556 63.326L20.7431 84.2301L21.9054 84.4365L25.6179 63.5324L24.4556 63.326ZM21.3243 83.7435H15.1659V84.923H21.3243V83.7435ZM15.7471 84.4365L21.1629 53.9312L20.0006 53.7252L14.5848 84.2301L15.7471 84.4365ZM20.5818 54.418H26.6964V53.2385H20.5818V54.418ZM26.1651 54.0849L36.298 75.0324L37.3607 74.5194L27.2279 53.5716L26.1651 54.0849ZM37.4105 74.8785L41.123 53.9311L39.9606 53.7254L36.2481 74.6733L37.4105 74.8785ZM40.5418 54.418H46.6565V53.2385H40.5418V54.418ZM46.0752 53.726L40.703 84.2313L41.8656 84.4353L47.2378 53.9304L46.0752 53.726ZM59.1198 83.0241L58.8284 83.5371L58.8329 83.5395L58.8375 83.5419L59.1198 83.0241ZM54.5772 78.4854L54.0605 78.7702L54.0624 78.7738L54.5772 78.4854ZM55.276 62.3819L54.7616 62.0929L54.7594 62.097L55.276 62.3819ZM61.7404 55.8357L62.0343 56.3471L62.0361 56.3461L61.7404 55.8357ZM77.8569 55.0502L77.5713 55.5664L77.5748 55.5682L77.8569 55.0502ZM82.4429 59.5888L81.9259 59.8737L81.9277 59.8772L82.4429 59.5888ZM81.7441 75.6924L81.2271 75.4075L81.7441 75.6924ZM75.28 82.2822L75.5716 82.7947L75.5757 82.7923L75.28 82.2822ZM72.5721 77.3507L72.2481 76.8577L72.2445 76.8601L72.5721 77.3507ZM76.4593 72.8993L75.9293 72.6387L75.9281 72.6422L76.4593 72.8993ZM75.8478 61.1163L75.4258 61.5285L75.8478 61.1163ZM64.4483 60.7235L64.1243 60.2305L64.1208 60.2328L64.4483 60.7235ZM60.5612 65.1749L60.0329 64.9113L60.03 64.9178L60.5612 65.1749ZM61.1726 76.958L60.7418 77.3613L60.7459 77.3661L60.7506 77.3702L61.1726 76.958ZM65.9333 84.049C63.4556 84.049 61.2836 83.5295 59.4014 82.5063L58.8375 83.5419C60.9153 84.6718 63.2856 85.2285 65.9333 85.2285V84.049ZM59.4108 82.511C57.5517 81.4577 56.1157 80.0217 55.0921 78.197L54.0624 78.7738C55.1934 80.7895 56.7856 82.3795 58.8284 83.5371L59.4108 82.511ZM55.0939 78.2005C54.0705 76.3488 53.5514 74.2233 53.5514 71.8083H52.371C52.371 74.3973 52.9293 76.7238 54.0605 78.7702L55.0939 78.2005ZM53.5514 71.8083C53.5514 68.4073 54.3022 65.3648 55.7928 62.6667L54.7594 62.097C53.1635 64.985 52.371 68.2268 52.371 71.8083H53.5514ZM55.7905 62.6708C57.3116 59.9692 59.3907 57.8644 62.0343 56.3471L61.4459 55.3243C58.6154 56.9492 56.3852 59.2084 54.7616 62.0929L55.7905 62.6708ZM62.0361 56.3461C64.7057 54.8018 67.7028 54.0252 71.0434 54.0252V52.8457C67.5116 52.8457 64.3073 53.6693 61.4441 55.3253L62.0361 56.3461ZM71.0434 54.0252C73.5513 54.0252 75.7209 54.5455 77.5713 55.5664L78.142 54.5339C76.0904 53.4019 73.7183 52.8457 71.0434 52.8457V54.0252ZM77.5748 55.5682C79.457 56.5916 80.9037 58.0242 81.9259 59.8737L82.9594 59.304C81.8268 57.2549 80.2166 55.6617 78.1385 54.5321L77.5748 55.5682ZM81.9277 59.8772C82.9499 61.6989 83.4687 63.7937 83.4687 66.1786H84.6492C84.6492 63.6174 84.0902 61.3191 82.9576 59.3004L81.9277 59.8772ZM83.4687 66.1786C83.4687 69.6398 82.7168 72.7112 81.2271 75.4075L82.2606 75.9772C83.8571 73.0875 84.6492 69.8162 84.6492 66.1786H83.4687ZM81.2271 75.4075C79.7356 78.1062 77.6574 80.2251 74.9838 81.772L75.5757 82.7923C78.4342 81.1386 80.6652 78.8646 82.2606 75.9772L81.2271 75.4075ZM74.9879 81.7697C72.3189 83.2859 69.3053 84.049 65.9333 84.049V85.2285C69.4912 85.2285 72.7085 84.4206 75.5716 82.7947L74.9879 81.7697ZM66.8069 79.5988C69.0951 79.5988 71.1332 79.0179 72.8991 77.8414L72.2445 76.8601C70.6911 77.8951 68.8856 78.4193 66.8069 78.4193V79.5988ZM72.8956 77.8438C74.6757 76.6784 76.042 75.1121 76.9905 73.1565L75.9281 72.6422C75.0705 74.4109 73.8452 75.8121 72.2481 76.8577L72.8956 77.8438ZM76.9887 73.16C77.962 71.1838 78.4472 69.043 78.4472 66.746H77.2667C77.2667 68.8714 76.8193 70.8329 75.9293 72.6387L76.9887 73.16ZM78.4472 66.746C78.4472 64.246 77.7418 62.2073 76.2693 60.704L75.4258 61.5285C76.6322 62.7605 77.2667 64.4743 77.2667 66.746H78.4472ZM76.2693 60.704C74.7913 59.1949 72.7451 58.4754 70.2136 58.4754V59.6549C72.5155 59.6549 74.2247 60.3024 75.4258 61.5285L76.2693 60.704ZM70.2136 58.4754C67.9519 58.4754 65.9162 59.0575 64.1243 60.2305L64.7718 61.2165C66.3577 60.1786 68.1655 59.6549 70.2136 59.6549V58.4754ZM64.1208 60.2328C62.3714 61.3982 61.0085 62.9616 60.0329 64.9113L61.0888 65.4385C61.9765 63.664 63.2053 62.2604 64.7753 61.2142L64.1208 60.2328ZM60.03 64.9178C59.0856 66.8657 58.6167 68.9905 58.6167 71.2846H59.7974C59.7974 69.1562 60.2306 67.2083 61.0918 65.432L60.03 64.9178ZM58.6167 71.2846C58.6167 73.7816 59.3052 75.8304 60.7418 77.3613L61.6029 76.5546C60.4189 75.2925 59.7974 73.5593 59.7974 71.2846H58.6167ZM60.7506 77.3702C62.2285 78.8793 64.2748 79.5988 66.8069 79.5988V78.4193C64.5044 78.4193 62.7951 77.7718 61.594 76.5457L60.7506 77.3702ZM110.384 82.5876L110.04 83.0671L110.044 83.0701L110.048 83.073L110.384 82.5876ZM107.545 75.5615V74.9717H107.017L106.958 75.4966L107.545 75.5615ZM113.791 75.5615L114.378 75.6175L114.44 74.9717H113.791V75.5615ZM114.752 78.5727L114.327 78.982L114.33 78.9855L114.334 78.9896L114.752 78.5727ZM121.652 78.8345L121.998 79.3122L122.001 79.3099L121.652 78.8345ZM121.609 73.554L121.259 74.0293L121.263 74.0322L121.267 74.0352L121.609 73.554ZM117.459 71.4155L117.232 71.9599H117.233L117.459 71.4155ZM113.179 69.4081L112.888 69.9211L112.894 69.9241L113.179 69.4081ZM110.384 66.8769L109.897 67.2101L109.902 67.2172L109.907 67.2242L110.384 66.8769ZM110.69 57.7996L110.208 57.4586L110.203 57.4655L110.69 57.7996ZM114.708 54.5701L114.47 54.0304L114.466 54.032L114.708 54.5701ZM126.151 54.5265L125.903 55.0617L125.909 55.0644L125.915 55.067L126.151 54.5265ZM129.732 57.5377L129.226 57.8411L129.229 57.8452L129.231 57.8493L129.732 57.5377ZM130.781 62.12V62.7098H131.333L131.37 62.1595L130.781 62.12ZM124.273 62.12L123.685 62.0663L123.627 62.7098H124.273V62.12ZM124.317 61.64L124.904 61.6936L124.907 61.6665V61.64H124.317ZM123.225 59.2833L122.836 59.7274L122.84 59.731L122.845 59.7351L123.225 59.2833ZM116.935 59.327L116.578 58.8571L116.935 59.327ZM116.368 63.8657L115.916 64.2454L115.927 64.2584L115.938 64.2708L116.368 63.8657ZM118.158 65.2622L117.861 65.7717L117.869 65.7764L117.877 65.7805L118.158 65.2622ZM121.172 66.746L120.922 67.2803L120.928 67.2832L120.934 67.2856L121.172 66.746ZM125.409 68.8844L125.103 69.3886V69.3892L125.409 68.8844ZM128.247 71.5465L127.766 71.8879L128.247 71.5465ZM127.985 80.2747L127.502 79.9356L127.5 79.9391L127.497 79.9426L127.985 80.2747ZM123.967 83.5041L124.205 84.0437L124.209 84.042L123.967 83.5041ZM117.94 84.049C114.97 84.049 112.577 83.3856 110.719 82.1023L110.048 83.073C112.15 84.525 114.795 85.2285 117.94 85.2285V84.049ZM110.727 82.1082C108.939 80.8279 108.048 79.0616 108.048 76.7398H106.867C106.867 79.4225 107.927 81.5544 110.04 83.0671L110.727 82.1082ZM108.048 76.7398C108.048 76.5121 108.074 76.1459 108.132 75.6263L106.958 75.4966C106.899 76.0244 106.867 76.4437 106.867 76.7398H108.048ZM107.545 76.1512H113.791V74.9717H107.545V76.1512ZM113.203 75.5054C113.072 76.8748 113.434 78.0561 114.327 78.982L115.176 78.1634C114.555 77.5182 114.276 76.692 114.378 75.6175L113.203 75.5054ZM114.334 78.9896C115.264 79.9191 116.571 80.3407 118.158 80.3407V79.1612C116.775 79.1612 115.811 78.7974 115.169 78.1557L114.334 78.9896ZM118.158 80.3407C119.716 80.3407 121.018 80.0211 121.998 79.3122L121.306 78.3568C120.597 78.8699 119.57 79.1612 118.158 79.1612V80.3407ZM122.001 79.3099C123.039 78.5497 123.553 77.464 123.553 76.1288H122.372C122.372 77.1213 122.012 77.8396 121.303 78.3592L122.001 79.3099ZM123.553 76.1288C123.553 74.8549 123.004 73.8199 121.95 73.0727L121.267 74.0352C122.019 74.5677 122.372 75.2495 122.372 76.1288H123.553ZM121.958 73.0786C121.026 72.3957 119.591 71.6615 117.686 70.8712L117.233 71.9599C119.113 72.7407 120.444 73.4319 121.259 74.0293L121.958 73.0786ZM117.686 70.8712C115.95 70.1488 114.546 69.4889 113.465 68.892L112.894 69.9241C114.026 70.5492 115.474 71.228 117.232 71.9599L117.686 70.8712ZM113.47 68.895C112.472 68.3288 111.601 67.5433 110.861 66.5295L109.907 67.2242C110.739 68.3636 111.732 69.2653 112.888 69.9211L113.47 68.895ZM110.871 66.5437C110.196 65.5576 109.839 64.2991 109.839 62.731H108.658C108.658 64.4796 109.058 65.9852 109.897 67.2101L110.871 66.5437ZM109.839 62.731C109.839 60.9447 110.291 59.4208 111.176 58.1336L110.203 57.4655C109.167 58.9715 108.658 60.7347 108.658 62.731H109.839ZM111.171 58.1404C112.096 56.8369 113.349 55.8251 114.949 55.1083L114.466 54.032C112.689 54.8279 111.264 55.9692 110.208 57.4587L111.171 58.1404ZM114.946 55.1098C116.578 54.3913 118.445 54.0252 120.56 54.0252V52.8457C118.308 52.8457 116.274 53.236 114.47 54.0304L114.946 55.1098ZM120.56 54.0252C122.65 54.0252 124.425 54.3779 125.903 55.0617L126.399 53.9913C124.732 53.2204 122.78 52.8457 120.56 52.8457V54.0252ZM125.915 55.067C127.421 55.7235 128.512 56.6517 129.226 57.8411L130.238 57.2343C129.38 55.8052 128.084 54.726 126.387 53.986L125.915 55.067ZM129.231 57.8493C129.973 59.0398 130.301 60.441 130.192 62.0805L131.37 62.1595C131.493 60.3077 131.122 58.654 130.234 57.2261L129.231 57.8493ZM130.781 61.5303H124.273V62.7098H130.781V61.5303ZM124.861 62.1737L124.904 61.6936L123.729 61.5863L123.685 62.0663L124.861 62.1737ZM124.907 61.64C124.907 60.5076 124.467 59.5564 123.604 58.8318L122.845 59.7351C123.438 60.2322 123.726 60.8521 123.726 61.64H124.907ZM123.613 58.8395C122.772 58.104 121.625 57.7771 120.255 57.7771V58.9566C121.447 58.9566 122.28 59.2409 122.836 59.7274L123.613 58.8395ZM120.255 57.7771C118.795 57.7771 117.552 58.1192 116.578 58.8571L117.292 59.797C118.007 59.2544 118.978 58.9566 120.255 58.9566V57.7771ZM116.578 58.8571C115.58 59.6142 115.079 60.6651 115.079 61.9454H116.259C116.259 61.0148 116.602 60.3195 117.292 59.797L116.578 58.8571ZM115.079 61.9454C115.079 62.8106 115.36 63.5855 115.916 64.2454L116.819 63.4859C116.443 63.04 116.259 62.5346 116.259 61.9454H115.079ZM115.938 64.2708C116.477 64.8399 117.119 65.3394 117.861 65.7717L118.456 64.7526C117.799 64.3705 117.249 63.9388 116.797 63.4605L115.938 64.2708ZM117.877 65.7805C118.592 66.1674 119.608 66.6675 120.922 67.2803L121.422 66.2117C120.115 65.6024 119.123 65.1135 118.439 64.7438L117.877 65.7805ZM120.934 67.2856C122.638 68.0357 124.026 68.7375 125.103 69.3886L125.714 68.3795C124.579 67.6931 123.142 66.9689 121.41 66.2063L120.934 67.2856ZM125.103 69.3892C126.137 70.0143 127.025 70.8447 127.766 71.8879L128.729 71.205C127.898 70.0367 126.893 69.0925 125.714 68.3795L125.103 69.3892ZM127.766 71.8879C128.469 72.8769 128.837 74.1048 128.837 75.6051H130.017C130.017 73.9049 129.598 72.427 128.729 71.205L127.766 71.8879ZM128.837 75.6051C128.837 77.2351 128.39 78.6723 127.502 79.9356L128.468 80.6138C129.502 79.1424 130.017 77.4663 130.017 75.6051H128.837ZM127.497 79.9426C126.636 81.2071 125.388 82.2185 123.725 82.9663L124.209 84.042C126.04 83.2187 127.471 82.0775 128.473 80.6067L127.497 79.9426ZM123.729 82.9645C122.101 83.681 120.176 84.049 117.94 84.049V85.2285C120.304 85.2285 122.397 84.8399 124.205 84.0437L123.729 82.9645ZM163.335 63.2983L162.757 63.1768L162.755 63.1857L162.753 63.1945L163.335 63.2983ZM161.369 67.8806L161.85 68.2233L161.369 67.8806ZM157.133 71.3283L156.875 70.7975L156.873 70.7993L157.133 71.3283ZM145.602 72.6375V72.0478H145.107L145.021 72.5355L145.602 72.6375ZM143.55 84.3333V84.923H144.045L144.131 84.4353L143.55 84.3333ZM137.391 84.3333L136.81 84.2301L136.687 84.923H137.391V84.3333ZM142.807 53.8719V53.2821H142.312L142.226 53.7687L142.807 53.8719ZM161.107 55.9666L160.719 56.411L160.724 56.4149L161.107 55.9666ZM155.255 66.615L155.637 67.065L155.255 66.615ZM157.089 63.2983L156.513 63.1703L156.511 63.1798L156.509 63.1898L157.089 63.2983ZM148.092 58.716V58.1263H147.597L147.51 58.6132L148.092 58.716ZM146.476 67.837L145.894 67.7344L145.772 68.4267H146.476V67.837ZM162.753 63.1945C162.479 64.7326 161.86 66.1792 160.889 67.538L161.85 68.2233C162.916 66.7306 163.608 65.1224 163.916 63.4021L162.753 63.1945ZM160.889 67.538C159.935 68.872 158.605 69.9612 156.875 70.7975L157.39 71.859C159.271 70.9497 160.765 69.7401 161.85 68.2233L160.889 67.538ZM156.873 70.7993C155.196 71.6231 153.149 72.0478 150.712 72.0478V73.2272C153.283 73.2272 155.517 72.779 157.393 71.8573L156.873 70.7993ZM150.712 72.0478H145.602V73.2272H150.712V72.0478ZM145.021 72.5355L142.968 84.2313L144.131 84.4353L146.184 72.7395L145.021 72.5355ZM143.55 83.7435H137.391V84.923H143.55V83.7435ZM137.972 84.4365L143.388 53.975L142.226 53.7687L136.81 84.2301L137.972 84.4365ZM142.807 54.4616H154.032V53.2821H142.807V54.4616ZM154.032 54.4616C157.07 54.4616 159.266 55.1435 160.719 56.4109L161.495 55.5223C159.746 53.9967 157.225 53.2821 154.032 53.2821V54.4616ZM160.724 56.4149C162.181 57.6592 162.919 59.3217 162.919 61.4654H164.1C164.1 59.0127 163.236 57.0089 161.491 55.5183L160.724 56.4149ZM162.919 61.4654C162.919 62.1011 162.864 62.6702 162.757 63.1768L163.912 63.4198C164.038 62.8206 164.1 62.1684 164.1 61.4654H162.919ZM151.324 68.4267C153.079 68.4267 154.539 67.995 155.637 67.065L154.873 66.1651C154.048 66.8645 152.889 67.2472 151.324 67.2472V68.4267ZM155.637 67.065C156.714 66.1515 157.385 64.9183 157.669 63.4068L156.509 63.1898C156.269 64.4713 155.717 65.4497 154.873 66.1651L155.637 67.065ZM157.665 63.4263C157.738 63.1008 157.767 62.6714 157.767 62.1636H156.586C156.586 62.6449 156.557 62.9722 156.513 63.1703L157.665 63.4263ZM157.767 62.1636C157.767 60.8857 157.364 59.833 156.476 59.1188C155.614 58.4239 154.387 58.1263 152.896 58.1263V59.3058C154.259 59.3058 155.172 59.5829 155.736 60.037C156.276 60.4717 156.586 61.1428 156.586 62.1636H157.767ZM152.896 58.1263H148.092V59.3058H152.896V58.1263ZM147.51 58.6132L145.894 67.7344L147.057 67.9396L148.673 58.8188L147.51 58.6132ZM146.476 68.4267H151.324V67.2472H146.476V68.4267ZM175.8 83.0241L175.509 83.5371L175.513 83.5395L175.518 83.5419L175.8 83.0241ZM171.257 78.4854L170.741 78.7702L170.743 78.7738L171.257 78.4854ZM171.956 62.3819L171.442 62.0929L171.44 62.097L171.956 62.3819ZM178.42 55.8357L178.714 56.3471L178.716 56.3461L178.42 55.8357ZM194.537 55.0502L194.252 55.5664L194.255 55.5682L194.537 55.0502ZM199.123 59.5888L198.606 59.8737L198.608 59.8772L199.123 59.5888ZM198.424 75.6924L197.908 75.4075L198.424 75.6924ZM191.96 82.2822L192.252 82.7947L192.256 82.7923L191.96 82.2822ZM189.252 77.3507L188.929 76.8577L188.925 76.8601L189.252 77.3507ZM193.139 72.8993L192.61 72.6387L192.608 72.6422L193.139 72.8993ZM192.528 61.1163L192.106 61.5285L192.528 61.1163ZM181.128 60.7235L180.805 60.2305L180.801 60.2328L181.128 60.7235ZM177.241 65.1749L176.713 64.9113L176.71 64.9178L177.241 65.1749ZM177.852 76.958L177.422 77.3613L177.426 77.3661L177.431 77.3702L177.852 76.958ZM182.613 84.049C180.136 84.049 177.964 83.5295 176.082 82.5063L175.518 83.5419C177.596 84.6718 179.966 85.2285 182.613 85.2285V84.049ZM176.091 82.511C174.232 81.4577 172.796 80.0217 171.773 78.197L170.743 78.7738C171.874 80.7895 173.466 82.3795 175.509 83.5371L176.091 82.511ZM171.774 78.2005C170.751 76.3488 170.232 74.2233 170.232 71.8083H169.051C169.051 74.3973 169.609 76.7238 170.741 78.7702L171.774 78.2005ZM170.232 71.8083C170.232 68.4073 170.982 65.3648 172.473 62.6667L171.44 62.097C169.844 64.985 169.051 68.2268 169.051 71.8083H170.232ZM172.471 62.6708C173.992 59.9692 176.071 57.8644 178.714 56.3471L178.126 55.3243C175.296 56.9492 173.066 59.2084 171.442 62.0929L172.471 62.6708ZM178.716 56.3461C181.386 54.8018 184.383 54.0252 187.723 54.0252V52.8457C184.192 52.8457 180.988 53.6693 178.125 55.3253L178.716 56.3461ZM187.723 54.0252C190.232 54.0252 192.401 54.5455 194.252 55.5664L194.822 54.5339C192.771 53.4019 190.398 52.8457 187.723 52.8457V54.0252ZM194.255 55.5682C196.137 56.5916 197.584 58.0242 198.606 59.8737L199.64 59.304C198.507 57.2549 196.896 55.6617 194.819 54.5321L194.255 55.5682ZM198.608 59.8772C199.63 61.6989 200.149 63.7937 200.149 66.1786H201.329C201.329 63.6174 200.771 61.3191 199.638 59.3004L198.608 59.8772ZM200.149 66.1786C200.149 69.6398 199.397 72.7112 197.908 75.4075L198.941 75.9772C200.538 73.0875 201.329 69.8162 201.329 66.1786H200.149ZM197.908 75.4075C196.416 78.1062 194.338 80.2251 191.664 81.772L192.256 82.7923C195.115 81.1386 197.346 78.8646 198.941 75.9772L197.908 75.4075ZM191.668 81.7697C188.999 83.2859 185.986 84.049 182.613 84.049V85.2285C186.171 85.2285 189.389 84.4206 192.252 82.7947L191.668 81.7697ZM183.487 79.5988C185.776 79.5988 187.814 79.0179 189.58 77.8414L188.925 76.8601C187.371 77.8951 185.565 78.4193 183.487 78.4193V79.5988ZM189.575 77.8438C191.356 76.6784 192.722 75.1121 193.67 73.1565L192.608 72.6422C191.751 74.4109 190.526 75.8121 188.929 76.8577L189.575 77.8438ZM193.669 73.16C194.642 71.1838 195.127 69.043 195.127 66.746H193.947C193.947 68.8714 193.5 70.8329 192.61 72.6387L193.669 73.16ZM195.127 66.746C195.127 64.246 194.422 62.2073 192.95 60.704L192.106 61.5285C193.313 62.7605 193.947 64.4743 193.947 66.746H195.127ZM192.95 60.704C191.472 59.1949 189.425 58.4754 186.893 58.4754V59.6549C189.196 59.6549 190.905 60.3024 192.106 61.5285L192.95 60.704ZM186.893 58.4754C184.632 58.4754 182.597 59.0575 180.805 60.2305L181.452 61.2165C183.038 60.1786 184.846 59.6549 186.893 59.6549V58.4754ZM180.801 60.2328C179.052 61.3982 177.689 62.9616 176.713 64.9113L177.769 65.4385C178.657 63.664 179.885 62.2604 181.456 61.2142L180.801 60.2328ZM176.71 64.9178C175.766 66.8657 175.297 68.9905 175.297 71.2846H176.477C176.477 69.1562 176.911 67.2083 177.772 65.432L176.71 64.9178ZM175.297 71.2846C175.297 73.7816 175.986 75.8304 177.422 77.3613L178.283 76.5546C177.099 75.2925 176.477 73.5593 176.477 71.2846H175.297ZM177.431 77.3702C178.909 78.8793 180.955 79.5988 183.487 79.5988V78.4193C181.185 78.4193 179.476 77.7718 178.274 76.5457L177.431 77.3702ZM218.522 53.8719L219.103 53.9742L219.226 53.2821H218.522V53.8719ZM213.15 84.3333V84.923H213.645L213.731 84.4359L213.15 84.3333ZM206.992 84.3333L206.41 84.2301L206.287 84.923H206.992V84.3333ZM212.407 53.8719V53.2821H211.913L211.826 53.7687L212.407 53.8719ZM217.941 53.7695L212.569 84.2307L213.731 84.4359L219.103 53.9742L217.941 53.7695ZM213.15 83.7435H206.992V84.923H213.15V83.7435ZM207.572 84.4365L212.989 53.975L211.826 53.7687L206.41 84.2301L207.572 84.4365ZM212.407 54.4616H218.522V53.2821H212.407V54.4616ZM230.504 79.6637L229.922 79.5617L229.8 80.2534H230.504V79.6637ZM240.549 79.6637L241.13 79.7669L241.253 79.074H240.549V79.6637ZM239.719 84.3333V84.923H240.214L240.3 84.4365L239.719 84.3333ZM223.515 84.3333L222.934 84.2301L222.811 84.923H223.515V84.3333ZM228.931 53.8719V53.2821H228.437L228.35 53.7687L228.931 53.8719ZM235.046 53.8719L235.627 53.9741L235.749 53.2821H235.046V53.8719ZM230.504 80.2534H240.549V79.074H230.504V80.2534ZM239.968 79.5605L239.138 84.2301L240.3 84.4365L241.13 79.7669L239.968 79.5605ZM239.719 83.7435H223.515V84.923H239.719V83.7435ZM224.096 84.4365L229.512 53.975L228.35 53.7687L222.934 84.2301L224.096 84.4365ZM228.931 54.4616H235.046V53.2821H228.931V54.4616ZM234.465 53.7697L229.922 79.5617L231.084 79.7657L235.627 53.9741L234.465 53.7697ZM258.63 58.6287V58.039H258.135L258.049 58.5261L258.63 58.6287ZM257.232 66.5278L256.651 66.4251L256.529 67.1175H257.232V66.5278ZM267.496 66.5278L268.078 66.6298L268.2 65.938H267.496V66.5278ZM266.666 71.241V71.8307H267.162L267.248 71.343L266.666 71.241ZM256.402 71.241V70.6512H255.907L255.821 71.1395L256.402 71.241ZM254.961 79.4891L254.38 79.3877L254.259 80.0789H254.961V79.4891ZM266.535 79.4891L267.117 79.5935L267.242 78.8994H266.535V79.4891ZM265.662 84.3333V84.923H266.155L266.243 84.4377L265.662 84.3333ZM247.929 84.3333L247.348 84.2301L247.225 84.923H247.929V84.3333ZM253.345 53.8282V53.2385H252.85L252.764 53.7252L253.345 53.8282ZM271.034 53.8282L271.616 53.9286L271.735 53.2385H271.034V53.8282ZM270.204 58.6287V59.2185H270.702L270.786 58.7291L270.204 58.6287ZM258.049 58.5261L256.651 66.4251L257.814 66.6304L259.211 58.7314L258.049 58.5261ZM257.232 67.1175H267.496V65.938H257.232V67.1175ZM266.915 66.4257L266.086 71.139L267.248 71.343L268.078 66.6298L266.915 66.4257ZM266.666 70.6512H256.402V71.8307H266.666V70.6512ZM255.821 71.1395L254.38 79.3877L255.543 79.5906L256.984 71.3424L255.821 71.1395ZM254.961 80.0789H266.535V78.8994H254.961V80.0789ZM265.954 79.3848L265.081 84.2289L266.243 84.4377L267.117 79.5935L265.954 79.3848ZM265.662 83.7435H247.929V84.923H265.662V83.7435ZM248.511 84.4365L253.926 53.9312L252.764 53.7252L247.348 84.2301L248.511 84.4365ZM253.345 54.418H271.034V53.2385H253.345V54.418ZM270.453 53.7278L269.623 58.5284L270.786 58.7291L271.616 53.9286L270.453 53.7278ZM270.204 58.039H258.63V59.2185H270.204V58.039ZM299.477 56.0103L299.085 56.4506L299.089 56.4546L299.477 56.0103ZM301.748 63.211L302.33 63.3137L302.331 63.306L302.332 63.2983L301.748 63.211ZM299.04 68.6225L298.6 68.2298V68.2303L299.04 68.6225ZM293.275 71.9829L293.124 71.4126L292.472 71.5854L292.73 72.2082L293.275 71.9829ZM298.385 84.3333V84.923H299.268L298.931 84.108L298.385 84.3333ZM291.266 84.3333L290.715 84.5438L290.86 84.923H291.266V84.3333ZM286.724 72.4629L287.275 72.2524L287.13 71.8732H286.724V72.4629ZM283.797 72.4629V71.8732H283.302L283.216 72.3603L283.797 72.4629ZM281.701 84.3333V84.923H282.196L282.282 84.4359L281.701 84.3333ZM275.543 84.3333L274.962 84.2301L274.838 84.923H275.543V84.3333ZM280.958 53.8719V53.2821H280.464L280.378 53.7687L280.958 53.8719ZM295.459 63.342L296.04 63.4487L296.043 63.4281L296.046 63.4068L295.459 63.342ZM294.498 59.7198L294.11 60.1638L294.498 59.7198ZM286.2 58.8033V58.2135H285.705L285.619 58.7005L286.2 58.8033ZM284.584 67.9243L284.003 67.8217L283.88 68.514H284.584V67.9243ZM293.581 66.7023L293.206 66.247L293.203 66.25L293.199 66.2523L293.581 66.7023ZM292.402 54.4616C295.437 54.4616 297.632 55.1569 299.085 56.4506L299.87 55.5699C298.12 54.0125 295.598 53.2821 292.402 53.2821V54.4616ZM299.089 56.4546C300.553 57.7307 301.289 59.3966 301.289 61.509H302.47C302.47 59.0828 301.605 57.0828 299.866 55.566L299.089 56.4546ZM301.289 61.509C301.289 62.031 301.248 62.5688 301.165 63.1238L302.332 63.2983C302.424 62.6897 302.47 62.0929 302.47 61.509H301.289ZM301.167 63.1084C300.839 64.9697 299.989 66.6746 298.6 68.2298L299.481 69.0153C301.003 67.3115 301.96 65.409 302.33 63.3137L301.167 63.1084ZM298.6 68.2303C297.262 69.7307 295.448 70.7975 293.124 71.4126L293.426 72.5532C295.936 71.8885 297.966 70.7149 299.481 69.0147L298.6 68.2303ZM292.73 72.2082L297.84 84.5586L298.931 84.108L293.821 71.7576L292.73 72.2082ZM298.385 83.7435H291.266V84.923H298.385V83.7435ZM291.817 84.1228L287.275 72.2524L286.172 72.6735L290.715 84.5438L291.817 84.1228ZM286.724 71.8732H283.797V73.0527H286.724V71.8732ZM283.216 72.3603L281.12 84.2307L282.282 84.4359L284.379 72.5655L283.216 72.3603ZM281.701 83.7435H275.543V84.923H281.701V83.7435ZM276.124 84.4365L281.54 53.975L280.378 53.7687L274.962 84.2301L276.124 84.4365ZM280.958 54.4616H292.402V53.2821H280.958V54.4616ZM296.046 63.4068C296.103 62.889 296.137 62.5075 296.137 62.2946H294.956C294.956 62.4308 294.931 62.7475 294.872 63.2771L296.046 63.4068ZM296.137 62.2946C296.137 61.0549 295.739 60.0205 294.887 59.2757L294.11 60.1638C294.656 60.6409 294.956 61.3233 294.956 62.2946H296.137ZM294.887 59.2757C294.036 58.5317 292.806 58.2135 291.31 58.2135V59.393C292.667 59.393 293.563 59.6861 294.11 60.1638L294.887 59.2757ZM291.31 58.2135H286.2V59.393H291.31V58.2135ZM285.619 58.7005L284.003 67.8217L285.165 68.0269L286.781 58.9061L285.619 58.7005ZM284.584 68.514H289.694V67.3345H284.584V68.514ZM289.694 68.514C291.422 68.514 292.867 68.0811 293.963 67.1523L293.199 66.2523C292.373 66.953 291.226 67.3345 289.694 67.3345V68.514ZM293.956 67.1576C295.068 66.2429 295.756 64.9921 296.04 63.4487L294.879 63.2352C294.638 64.5433 294.074 65.5323 293.206 66.247L293.956 67.1576ZM311.908 82.5876L311.565 83.0671L311.569 83.0701L311.573 83.073L311.908 82.5876ZM309.069 75.5615V74.9717H308.541L308.483 75.4966L309.069 75.5615ZM315.315 75.5615L315.903 75.6175L315.964 74.9717H315.315V75.5615ZM316.276 78.5727L315.851 78.982L315.855 78.9855L315.859 78.9896L316.276 78.5727ZM323.177 78.8345L323.523 79.3122L323.526 79.3099L323.177 78.8345ZM323.133 73.554L322.784 74.0293L322.788 74.0322L322.792 74.0352L323.133 73.554ZM318.984 71.4155L318.757 71.9599H318.758L318.984 71.4155ZM314.704 69.4081L314.413 69.9211L314.419 69.9241L314.704 69.4081ZM311.908 66.8769L311.421 67.2101L311.427 67.2172L311.432 67.2242L311.908 66.8769ZM312.214 57.7996L311.732 57.4586L311.728 57.4655L312.214 57.7996ZM316.232 54.5701L315.994 54.0304L315.991 54.032L316.232 54.5701ZM327.675 54.5265L327.428 55.0617L327.433 55.0644L327.44 55.067L327.675 54.5265ZM331.257 57.5377L330.751 57.8411L330.753 57.8452L330.756 57.8493L331.257 57.5377ZM332.305 62.12V62.7098H332.858L332.894 62.1595L332.305 62.12ZM325.797 62.12L325.21 62.0663L325.151 62.7098H325.797V62.12ZM325.841 61.64L326.429 61.6936L326.431 61.6665V61.64H325.841ZM324.749 59.2833L324.361 59.7274L324.366 59.731L324.37 59.7351L324.749 59.2833ZM318.46 59.327L318.103 58.8571L318.46 59.327ZM317.892 63.8657L317.441 64.2454L317.452 64.2584L317.463 64.2708L317.892 63.8657ZM319.683 65.2622L319.386 65.7717L319.394 65.7764L319.402 65.7805L319.683 65.2622ZM322.696 66.746L322.447 67.2803L322.453 67.2832L322.459 67.2856L322.696 66.746ZM326.933 68.8844L326.628 69.3886V69.3892L326.933 68.8844ZM329.772 71.5465L329.291 71.8879L329.772 71.5465ZM329.51 80.2747L329.027 79.9356L329.025 79.9391L329.022 79.9426L329.51 80.2747ZM325.492 83.5041L325.73 84.0437L325.734 84.042L325.492 83.5041ZM319.464 84.049C316.495 84.049 314.102 83.3856 312.244 82.1023L311.573 83.073C313.675 84.525 316.32 85.2285 319.464 85.2285V84.049ZM312.252 82.1082C310.464 80.8279 309.572 79.0616 309.572 76.7398H308.392C308.392 79.4225 309.451 81.5544 311.565 83.0671L312.252 82.1082ZM309.572 76.7398C309.572 76.5121 309.599 76.1459 309.656 75.6263L308.483 75.4966C308.424 76.0244 308.392 76.4437 308.392 76.7398H309.572ZM309.069 76.1512H315.315V74.9717H309.069V76.1512ZM314.728 75.5054C314.597 76.8748 314.959 78.0561 315.851 78.982L316.702 78.1634C316.079 77.5182 315.8 76.692 315.903 75.6175L314.728 75.5054ZM315.859 78.9896C316.789 79.9191 318.096 80.3407 319.683 80.3407V79.1612C318.3 79.1612 317.336 78.7974 316.694 78.1557L315.859 78.9896ZM319.683 80.3407C321.241 80.3407 322.544 80.0211 323.523 79.3122L322.831 78.3568C322.122 78.8699 321.095 79.1612 319.683 79.1612V80.3407ZM323.526 79.3099C324.564 78.5497 325.077 77.464 325.077 76.1288H323.897C323.897 77.1213 323.537 77.8396 322.828 78.3592L323.526 79.3099ZM325.077 76.1288C325.077 74.8549 324.528 73.8199 323.475 73.0727L322.792 74.0352C323.543 74.5677 323.897 75.2495 323.897 76.1288H325.077ZM323.483 73.0786C322.551 72.3957 321.115 71.6615 319.211 70.8712L318.758 71.9599C320.638 72.7407 321.969 73.4319 322.784 74.0293L323.483 73.0786ZM319.211 70.8712C317.475 70.1488 316.07 69.4889 314.989 68.892L314.419 69.9241C315.551 70.5492 316.999 71.228 318.757 71.9599L319.211 70.8712ZM314.995 68.895C313.996 68.3288 313.126 67.5433 312.385 66.5295L311.432 67.2242C312.264 68.3636 313.257 69.2653 314.413 69.9211L314.995 68.895ZM312.396 66.5437C311.72 65.5576 311.363 64.2991 311.363 62.731H310.183C310.183 64.4796 310.583 65.9852 311.421 67.2101L312.396 66.5437ZM311.363 62.731C311.363 60.9447 311.815 59.4208 312.701 58.1336L311.728 57.4655C310.692 58.9715 310.183 60.7347 310.183 62.731H311.363ZM312.696 58.1404C313.62 56.8369 314.874 55.8251 316.474 55.1083L315.991 54.032C314.214 54.8279 312.788 55.9692 311.732 57.4587L312.696 58.1404ZM316.471 55.1098C318.102 54.3913 319.97 54.0252 322.085 54.0252V52.8457C319.833 52.8457 317.799 53.236 315.994 54.0304L316.471 55.1098ZM322.085 54.0252C324.174 54.0252 325.95 54.3779 327.428 55.0617L327.924 53.9913C326.257 53.2204 324.305 52.8457 322.085 52.8457V54.0252ZM327.44 55.067C328.946 55.7235 330.037 56.6517 330.751 57.8411L331.763 57.2343C330.905 55.8052 329.609 54.726 327.912 53.986L327.44 55.067ZM330.756 57.8493C331.498 59.0398 331.826 60.441 331.717 62.0805L332.894 62.1595C333.018 60.3077 332.647 58.654 331.759 57.2261L330.756 57.8493ZM332.305 61.5303H325.797V62.7098H332.305V61.5303ZM326.385 62.1737L326.429 61.6936L325.254 61.5863L325.21 62.0663L326.385 62.1737ZM326.431 61.64C326.431 60.5076 325.992 59.5564 325.129 58.8318L324.37 59.7351C324.963 60.2322 325.251 60.8521 325.251 61.64H326.431ZM325.138 58.8395C324.297 58.104 323.149 57.7771 321.779 57.7771V58.9566C322.972 58.9566 323.804 59.2409 324.361 59.7274L325.138 58.8395ZM321.779 57.7771C320.32 57.7771 319.077 58.1192 318.103 58.8571L318.817 59.797C319.532 59.2544 320.502 58.9566 321.779 58.9566V57.7771ZM318.103 58.8571C317.105 59.6142 316.603 60.6651 316.603 61.9454H317.783C317.783 61.0148 318.127 60.3195 318.817 59.797L318.103 58.8571ZM316.603 61.9454C316.603 62.8106 316.885 63.5855 317.441 64.2454L318.344 63.4859C317.968 63.04 317.783 62.5346 317.783 61.9454H316.603ZM317.463 64.2708C318.001 64.8399 318.644 65.3394 319.386 65.7717L319.98 64.7526C319.324 64.3705 318.773 63.9388 318.321 63.4605L317.463 64.2708ZM319.402 65.7805C320.116 66.1674 321.133 66.6675 322.447 67.2803L322.946 66.2117C321.639 65.6024 320.648 65.1135 319.964 64.7438L319.402 65.7805ZM322.459 67.2856C324.162 68.0357 325.55 68.7375 326.628 69.3886L327.239 68.3795C326.103 67.6931 324.667 66.9689 322.935 66.2063L322.459 67.2856ZM326.628 69.3892C327.662 70.0143 328.55 70.8447 329.291 71.8879L330.254 71.205C329.423 70.0367 328.418 69.0925 327.239 68.3795L326.628 69.3892ZM329.291 71.8879C329.994 72.8769 330.361 74.1048 330.361 75.6051H331.541C331.541 73.9049 331.122 72.427 330.254 71.205L329.291 71.8879ZM330.361 75.6051C330.361 77.2351 329.915 78.6723 329.027 79.9356L329.993 80.6138C331.027 79.1424 331.541 77.4663 331.541 75.6051H330.361ZM329.022 79.9426C328.161 81.2071 326.913 82.2185 325.25 82.9663L325.734 84.042C327.565 83.2187 328.996 82.0775 329.998 80.6067L329.022 79.9426ZM325.254 82.9645C323.626 83.681 321.701 84.049 319.464 84.049V85.2285C321.829 85.2285 323.922 84.8399 325.73 84.0437L325.254 82.9645Z" fill="white"/>
</g>
</g>
</g>
<g style="mix-blend-mode:lighten" opacity="0.5" filter="url(#filter3_f_16_215)">
<g style="mix-blend-mode:color-dodge" opacity="0.5">
<g style="mix-blend-mode:color-dodge" opacity="0.5">
<path d="M44.2354 83.1538H38.0771L27.9879 62.2498L24.2754 83.1538H18.1171L23.5329 52.6488H29.6476L39.7805 73.5964L43.493 52.6488H49.6076L44.2354 83.1538ZM68.8845 83.4593C66.3217 83.4593 64.0506 82.9209 62.071 81.8446C60.1197 80.7388 58.6058 79.2261 57.5284 77.3059C56.451 75.3568 55.9123 73.1311 55.9123 70.6289C55.9123 67.1376 56.684 63.9954 58.2272 61.2024C59.7998 58.4094 61.9541 56.2273 64.6916 54.6562C67.4573 53.0561 70.5583 52.256 73.9946 52.256C76.5857 52.256 78.8568 52.7942 80.8081 53.8707C82.7877 54.9472 84.3164 56.4601 85.3941 58.4094C86.4712 60.3296 87.0101 62.5264 87.0101 64.9992C87.0101 68.5488 86.2381 71.7199 84.6953 74.5129C83.1519 77.3059 80.997 79.5027 78.2312 81.1027C75.4648 82.6738 72.3491 83.4593 68.8845 83.4593ZM69.758 77.8296C71.9418 77.8296 73.8636 77.277 75.5233 76.1713C77.2119 75.0655 78.5074 73.5817 79.4105 71.7199C80.3418 69.8286 80.8081 67.7774 80.8081 65.5665C80.8081 63.181 80.1382 61.3044 78.799 59.9368C77.4592 58.5694 75.5811 57.8857 73.1647 57.8857C71.0099 57.8857 69.0881 58.4384 67.3995 59.544C65.7398 60.6498 64.4437 62.1336 63.5123 63.9954C62.6093 65.8572 62.1583 67.8942 62.1583 70.1052C62.1583 72.4907 62.8135 74.382 64.1238 75.7785C65.463 77.1461 67.3411 77.8296 69.758 77.8296ZM120.891 83.4593C117.834 83.4593 115.315 82.7758 113.335 81.4082C111.384 80.0117 110.409 78.0626 110.409 75.5603C110.409 75.2984 110.438 74.9057 110.496 74.382H116.742C116.626 75.6039 116.945 76.6077 117.703 77.3932C118.489 78.1788 119.624 78.5715 121.109 78.5715C122.594 78.5715 123.759 78.266 124.604 77.6551C125.477 77.0152 125.914 76.1129 125.914 74.9493C125.914 73.873 125.462 73.0144 124.56 72.3745C123.686 71.7346 122.303 71.0216 120.411 70.2361C118.664 69.5089 117.237 68.8396 116.13 68.2286C115.053 67.6176 114.121 66.7737 113.335 65.6974C112.578 64.5917 112.199 63.2099 112.199 61.5515C112.199 59.6602 112.68 58.0166 113.641 56.6201C114.631 55.2236 115.97 54.1471 117.659 53.3906C119.377 52.6342 121.328 52.256 123.512 52.256C125.667 52.256 127.53 52.6197 129.102 53.347C130.703 54.0453 131.897 55.049 132.684 56.3582C133.499 57.6675 133.848 59.1949 133.732 60.9405H127.224L127.268 60.4605C127.268 59.5004 126.904 58.7149 126.176 58.1039C125.477 57.4929 124.487 57.1874 123.206 57.1874C121.837 57.1874 120.731 57.5075 119.887 58.1475C119.042 58.7876 118.62 59.6602 118.62 60.766C118.62 61.4931 118.853 62.1336 119.319 62.6862C119.814 63.2099 120.411 63.6752 121.109 64.0827C121.808 64.4607 122.813 64.9555 124.123 65.5665C125.841 66.3231 127.253 67.0355 128.36 67.7049C129.466 68.3743 130.412 69.2612 131.199 70.367C131.985 71.4728 132.378 72.8257 132.378 74.4256C132.378 76.1713 131.897 77.7276 130.937 79.0952C130.005 80.4628 128.665 81.5391 126.918 82.3247C125.2 83.0813 123.191 83.4593 120.891 83.4593ZM166.286 62.1189C165.995 63.7483 165.34 65.2758 164.321 66.7012C163.301 68.1266 161.889 69.276 160.084 70.1488C158.308 71.0216 156.168 71.458 153.664 71.458H148.553L146.501 83.1538H140.342L145.758 52.6924H156.983C160.099 52.6924 162.457 53.3906 164.059 54.7872C165.66 56.1546 166.461 57.9875 166.461 60.2859C166.461 60.9553 166.402 61.5663 166.286 62.1189ZM154.275 66.6575C155.935 66.6575 157.245 66.25 158.206 65.4356C159.167 64.6211 159.778 63.5154 160.04 62.1189C160.099 61.857 160.128 61.479 160.128 60.9842C160.128 58.6858 158.701 57.5365 155.847 57.5365H151.043L149.427 66.6575H154.275ZM185.564 83.4593C183.002 83.4593 180.731 82.9209 178.751 81.8446C176.8 80.7388 175.286 79.2261 174.209 77.3059C173.131 75.3568 172.592 73.1311 172.592 70.6289C172.592 67.1376 173.364 63.9954 174.907 61.2024C176.48 58.4094 178.635 56.2273 181.371 54.6562C184.138 53.0561 187.239 52.256 190.674 52.256C193.266 52.256 195.537 52.7942 197.488 53.8707C199.468 54.9472 200.997 56.4601 202.074 58.4094C203.152 60.3296 203.69 62.5264 203.69 64.9992C203.69 68.5488 202.919 71.7199 201.375 74.5129C199.832 77.3059 197.677 79.5027 194.911 81.1027C192.145 82.6738 189.03 83.4593 185.564 83.4593ZM186.438 77.8296C188.622 77.8296 190.543 77.277 192.203 76.1713C193.892 75.0655 195.188 73.5817 196.09 71.7199C197.022 69.8286 197.488 67.7774 197.488 65.5665C197.488 63.181 196.819 61.3044 195.479 59.9368C194.14 58.5694 192.262 57.8857 189.845 57.8857C187.69 57.8857 185.769 58.4384 184.079 59.544C182.42 60.6498 181.124 62.1336 180.192 63.9954C179.29 65.8572 178.838 67.8942 178.838 70.1052C178.838 72.4907 179.493 74.382 180.804 75.7785C182.143 77.1461 184.022 77.8296 186.438 77.8296ZM221.473 52.6924L216.101 83.1538H209.943L215.359 52.6924H221.473ZM233.455 78.4842H243.5L242.67 83.1538H226.467L231.882 52.6924H237.997L233.455 78.4842ZM261.581 57.4493L260.183 65.3483H270.447L269.617 70.0615H259.354L257.912 78.3097H269.486L268.613 83.1538H250.88L256.296 52.6488H273.985L273.155 57.4493H261.581ZM295.353 52.6924C298.469 52.6924 300.827 53.4052 302.428 54.8308C304.03 56.2273 304.831 58.0602 304.831 60.3296C304.831 60.8822 304.787 61.4495 304.699 62.0316C304.35 64.0102 303.448 65.8136 301.992 67.4431C300.565 69.043 298.643 70.1635 296.226 70.8034L301.336 83.1538H294.217L289.675 71.2835H286.749L284.652 83.1538H278.494L283.91 52.6924H295.353ZM298.41 62.1625C298.469 61.6388 298.497 61.2897 298.497 61.1151C298.497 60.0093 298.148 59.1513 297.449 58.5403C296.75 57.9293 295.688 57.6238 294.261 57.6238H289.151L287.535 66.7448H292.645C294.276 66.7448 295.571 66.3373 296.532 65.5229C297.522 64.7084 298.148 63.5879 298.41 62.1625ZM322.416 83.4593C319.358 83.4593 316.84 82.7758 314.86 81.4082C312.909 80.0117 311.933 78.0626 311.933 75.5603C311.933 75.2984 311.963 74.9057 312.021 74.382H318.266C318.15 75.6039 318.471 76.6077 319.227 77.3932C320.013 78.1788 321.149 78.5715 322.634 78.5715C324.119 78.5715 325.284 78.266 326.128 77.6551C327.002 77.0152 327.438 76.1129 327.438 74.9493C327.438 73.873 326.987 73.0144 326.084 72.3745C325.211 71.7346 323.828 71.0216 321.935 70.2361C320.188 69.5089 318.761 68.8396 317.655 68.2286C316.578 67.6176 315.646 66.7737 314.86 65.6974C314.103 64.5917 313.724 63.2099 313.724 61.5515C313.724 59.6602 314.204 58.0166 315.165 56.6201C316.156 55.2236 317.495 54.1471 319.184 53.3906C320.902 52.6342 322.852 52.256 325.036 52.256C327.191 52.256 329.054 52.6197 330.627 53.347C332.229 54.0453 333.422 55.049 334.208 56.3582C335.024 57.6675 335.373 59.1949 335.256 60.9405H328.749L328.792 60.4605C328.792 59.5004 328.429 58.7149 327.7 58.1039C327.002 57.4929 326.012 57.1874 324.73 57.1874C323.362 57.1874 322.256 57.5075 321.411 58.1475C320.567 58.7876 320.144 59.6602 320.144 60.766C320.144 61.4931 320.377 62.1336 320.843 62.6862C321.338 63.2099 321.935 63.6752 322.634 64.0827C323.333 64.4607 324.337 64.9555 325.648 65.5665C327.366 66.3231 328.778 67.0355 329.884 67.7049C330.991 68.3743 331.937 69.2612 332.723 70.367C333.509 71.4728 333.902 72.8257 333.902 74.4256C333.902 76.1713 333.422 77.7276 332.461 79.0952C331.53 80.4628 330.19 81.5391 328.443 82.3247C326.725 83.0813 324.716 83.4593 322.416 83.4593Z" fill="#FF5ABD"/>
</g>
</g>
<g style="mix-blend-mode:color-dodge" opacity="0.5" filter="url(#filter4_d_16_215)">
<g style="mix-blend-mode:color-dodge" opacity="0.5">
<path d="M40.6942 83.1538H34.5358L24.4466 62.2498L20.7342 83.1538H14.5758L19.9917 52.6488H26.1063L36.2392 73.5964L39.9517 52.6488H46.0664L40.6942 83.1538ZM65.3432 83.4593C62.7805 83.4593 60.5093 82.9209 58.5294 81.8446C56.5786 80.7388 55.0645 79.2261 53.9871 77.3059C52.9098 75.3568 52.3711 73.1311 52.3711 70.6289C52.3711 67.1376 53.1427 63.9954 54.6859 61.2024C56.2583 58.4094 58.413 56.2273 61.1503 54.6562C63.9161 53.0561 67.0171 52.256 70.4533 52.256C73.0444 52.256 75.3156 52.7942 77.2668 53.8707C79.2464 54.9472 80.7751 56.4601 81.8528 58.4094C82.93 60.3296 83.4689 62.5264 83.4689 64.9992C83.4689 68.5488 82.6969 71.7199 81.154 74.5129C79.6106 77.3059 77.4557 79.5027 74.6899 81.1027C71.9236 82.6738 68.8078 83.4593 65.3432 83.4593ZM66.2167 77.8296C68.4006 77.8296 70.3223 77.277 71.982 76.1713C73.6706 75.0655 74.9662 73.5817 75.8692 71.7199C76.8006 69.8286 77.2668 67.7774 77.2668 65.5665C77.2668 63.181 76.5969 61.3044 75.2577 59.9368C73.9179 58.5694 72.0398 57.8857 69.6235 57.8857C67.4686 57.8857 65.5468 58.4384 63.8582 59.544C62.1985 60.6498 60.9024 62.1336 59.971 63.9954C59.068 65.8572 58.6168 67.8942 58.6168 70.1052C58.6168 72.4907 59.2722 74.382 60.5825 75.7785C61.9217 77.1461 63.7998 77.8296 66.2167 77.8296ZM117.35 83.4593C114.292 83.4593 111.774 82.7758 109.794 81.4082C107.843 80.0117 106.868 78.0626 106.868 75.5603C106.868 75.2984 106.896 74.9057 106.955 74.382H113.201C113.084 75.6039 113.404 76.6077 114.161 77.3932C114.948 78.1788 116.083 78.5715 117.568 78.5715C119.053 78.5715 120.218 78.266 121.062 77.6551C121.936 77.0152 122.373 76.1129 122.373 74.9493C122.373 73.873 121.921 73.0144 121.019 72.3745C120.145 71.7346 118.762 71.0216 116.869 70.2361C115.122 69.5089 113.696 68.8396 112.589 68.2286C111.512 67.6176 110.58 66.7737 109.794 65.6974C109.037 64.5917 108.658 63.2099 108.658 61.5515C108.658 59.6602 109.139 58.0166 110.1 56.6201C111.089 55.2236 112.429 54.1471 114.118 53.3906C115.836 52.6342 117.787 52.256 119.97 52.256C122.125 52.256 123.989 52.6197 125.561 53.347C127.162 54.0453 128.356 55.049 129.142 56.3582C129.957 57.6675 130.307 59.1949 130.191 60.9405H123.683L123.727 60.4605C123.727 59.5004 123.362 58.7149 122.635 58.1039C121.936 57.4929 120.946 57.1874 119.665 57.1874C118.296 57.1874 117.19 57.5075 116.345 58.1475C115.501 58.7876 115.079 59.6602 115.079 60.766C115.079 61.4931 115.312 62.1336 115.777 62.6862C116.273 63.2099 116.869 63.6752 117.568 64.0827C118.267 64.4607 119.272 64.9555 120.582 65.5665C122.3 66.3231 123.712 67.0355 124.818 67.7049C125.925 68.3743 126.871 69.2612 127.657 70.367C128.444 71.4728 128.837 72.8257 128.837 74.4256C128.837 76.1713 128.356 77.7276 127.395 79.0952C126.463 80.4628 125.124 81.5391 123.377 82.3247C121.659 83.0813 119.65 83.4593 117.35 83.4593ZM162.745 62.1189C162.454 63.7483 161.799 65.2758 160.779 66.7012C159.76 68.1266 158.348 69.276 156.543 70.1488C154.767 71.0216 152.627 71.458 150.122 71.458H145.012L142.959 83.1538H136.801L142.217 52.6924H153.442C156.557 52.6924 158.916 53.3906 160.517 54.7872C162.119 56.1546 162.919 57.9875 162.919 60.2859C162.919 60.9553 162.861 61.5663 162.745 62.1189ZM150.734 66.6575C152.393 66.6575 153.704 66.25 154.665 65.4356C155.626 64.6211 156.237 63.5154 156.499 62.1189C156.557 61.857 156.586 61.479 156.586 60.9842C156.586 58.6858 155.16 57.5365 152.306 57.5365H147.502L145.886 66.6575H150.734ZM182.023 83.4593C179.461 83.4593 177.19 82.9209 175.21 81.8446C173.259 80.7388 171.745 79.2261 170.667 77.3059C169.59 75.3568 169.051 73.1311 169.051 70.6289C169.051 67.1376 169.823 63.9954 171.366 61.2024C172.938 58.4094 175.093 56.2273 177.83 54.6562C180.597 53.0561 183.698 52.256 187.133 52.256C189.725 52.256 191.996 52.7942 193.947 53.8707C195.927 54.9472 197.456 56.4601 198.533 58.4094C199.61 60.3296 200.149 62.5264 200.149 64.9992C200.149 68.5488 199.377 71.7199 197.834 74.5129C196.291 77.3059 194.136 79.5027 191.37 81.1027C188.604 82.6738 185.488 83.4593 182.023 83.4593ZM182.897 77.8296C185.08 77.8296 187.002 77.277 188.662 76.1713C190.351 75.0655 191.647 73.5817 192.549 71.7199C193.481 69.8286 193.947 67.7774 193.947 65.5665C193.947 63.181 193.277 61.3044 191.938 59.9368C190.598 58.5694 188.72 57.8857 186.303 57.8857C184.149 57.8857 182.227 58.4384 180.538 59.544C178.878 60.6498 177.583 62.1336 176.651 63.9954C175.748 65.8572 175.297 67.8942 175.297 70.1052C175.297 72.4907 175.952 74.382 177.262 75.7785C178.602 77.1461 180.48 77.8296 182.897 77.8296ZM217.932 52.6924L212.56 83.1538H206.401L211.817 52.6924H217.932ZM229.913 78.4842H239.959L239.129 83.1538H222.925L228.341 52.6924H234.456L229.913 78.4842ZM258.04 57.4493L256.642 65.3483H266.906L266.076 70.0615H255.812L254.371 78.3097H265.945L265.072 83.1538H247.339L252.755 52.6488H270.444L269.614 57.4493H258.04ZM291.812 52.6924C294.927 52.6924 297.286 53.4052 298.887 54.8308C300.489 56.2273 301.289 58.0602 301.289 60.3296C301.289 60.8822 301.246 61.4495 301.158 62.0316C300.809 64.0102 299.906 65.8136 298.45 67.4431C297.024 69.043 295.102 70.1635 292.685 70.8034L297.795 83.1538H290.676L286.134 71.2835H283.207L281.111 83.1538H274.953L280.368 52.6924H291.812ZM294.869 62.1625C294.927 61.6388 294.956 61.2897 294.956 61.1151C294.956 60.0093 294.607 59.1513 293.908 58.5403C293.209 57.9293 292.147 57.6238 290.72 57.6238H285.61L283.993 66.7448H289.104C290.734 66.7448 292.03 66.3373 292.991 65.5229C293.981 64.7084 294.607 63.5879 294.869 62.1625ZM318.874 83.4593C315.817 83.4593 313.298 82.7758 311.318 81.4082C309.368 80.0117 308.392 78.0626 308.392 75.5603C308.392 75.2984 308.421 74.9057 308.479 74.382H314.725C314.609 75.6039 314.929 76.6077 315.686 77.3932C316.472 78.1788 317.608 78.5715 319.093 78.5715C320.578 78.5715 321.743 78.266 322.587 77.6551C323.46 77.0152 323.897 76.1129 323.897 74.9493C323.897 73.873 323.446 73.0144 322.543 72.3745C321.67 71.7346 320.287 71.0216 318.394 70.2361C316.647 69.5089 315.22 68.8396 314.114 68.2286C313.036 67.6176 312.104 66.7737 311.318 65.6974C310.562 64.5917 310.183 63.2099 310.183 61.5515C310.183 59.6602 310.663 58.0166 311.624 56.6201C312.614 55.2236 313.954 54.1471 315.642 53.3906C317.36 52.6342 319.311 52.256 321.495 52.256C323.65 52.256 325.513 52.6197 327.085 53.347C328.687 54.0453 329.881 55.049 330.667 56.3582C331.483 57.6675 331.832 59.1949 331.715 60.9405H325.207L325.251 60.4605C325.251 59.5004 324.887 58.7149 324.159 58.1039C323.46 57.4929 322.47 57.1874 321.189 57.1874C319.821 57.1874 318.714 57.5075 317.87 58.1475C317.026 58.7876 316.603 59.6602 316.603 60.766C316.603 61.4931 316.836 62.1336 317.302 62.6862C317.797 63.2099 318.394 63.6752 319.093 64.0827C319.791 64.4607 320.796 64.9555 322.106 65.5665C323.824 66.3231 325.237 67.0355 326.343 67.7049C327.45 68.3743 328.396 69.2612 329.182 70.367C329.968 71.4728 330.361 72.8257 330.361 74.4256C330.361 76.1713 329.881 77.7276 328.92 79.0952C327.988 80.4628 326.649 81.5391 324.902 82.3247C323.184 83.0813 321.175 83.4593 318.874 83.4593Z" fill="#3965FF"/>
</g>
</g>
<g style="mix-blend-mode:color-dodge" opacity="0.5" filter="url(#filter5_d_16_215)">
<g style="mix-blend-mode:color-dodge" opacity="0.5">
<path d="M43.6452 84.9231H37.4869L27.3977 64.0191L23.6852 84.9231H17.5269L22.9427 54.418H29.0574L39.1903 75.3657L42.9027 54.418H49.0174L43.6452 84.9231ZM68.2943 85.2286C65.7315 85.2286 63.4604 84.6902 61.4808 83.6139C59.5295 82.5081 58.0155 80.9954 56.9382 79.0752C55.8608 77.1261 55.3221 74.9004 55.3221 72.3981C55.3221 68.9069 56.0938 65.7647 57.637 62.9717C59.2096 60.1787 61.3639 57.9966 64.1014 56.4255C66.8671 54.8254 69.9681 54.0253 73.4044 54.0253C75.9954 54.0253 78.2666 54.5635 80.2179 55.64C82.1975 56.7164 83.7261 58.2294 84.8039 60.1787C85.881 62.0989 86.4199 64.2957 86.4199 66.7685C86.4199 70.3181 85.6479 73.4892 84.1051 76.2822C82.5616 79.0752 80.4067 81.272 77.641 82.872C74.8746 84.4431 71.7588 85.2286 68.2943 85.2286ZM69.1678 79.5989C71.3516 79.5989 73.2734 79.0463 74.933 77.9406C76.6217 76.8348 77.9172 75.351 78.8202 73.4892C79.7516 71.5979 80.2179 69.5467 80.2179 67.3358C80.2179 64.9503 79.548 63.0737 78.2088 61.7061C76.869 60.3385 74.9909 59.655 72.5745 59.655C70.4196 59.655 68.4979 60.2076 66.8093 61.3133C65.1496 62.4191 63.8535 63.9029 62.9221 65.7647C62.0191 67.6265 61.5681 69.6635 61.5681 71.8744C61.5681 74.26 62.2233 76.1513 63.5336 77.5478C64.8728 78.9154 66.7508 79.5989 69.1678 79.5989ZM120.301 85.2286C117.244 85.2286 114.725 84.5451 112.745 83.1775C110.794 81.781 109.819 79.8319 109.819 77.3296C109.819 77.0677 109.847 76.675 109.906 76.1513H116.152C116.035 77.3732 116.355 78.377 117.112 79.1625C117.899 79.948 119.034 80.3408 120.519 80.3408C122.004 80.3408 123.169 80.0353 124.013 79.4243C124.887 78.7845 125.324 77.8822 125.324 76.7186C125.324 75.6423 124.872 74.7837 123.97 74.1438C123.096 73.5039 121.713 72.7909 119.82 72.0054C118.073 71.2782 116.647 70.6089 115.54 69.9979C114.463 69.3869 113.531 68.543 112.745 67.4667C111.988 66.3609 111.609 64.9792 111.609 63.3208C111.609 61.4295 112.09 59.7859 113.051 58.3894C114.04 56.9929 115.38 55.9164 117.069 55.1599C118.787 54.4035 120.738 54.0253 122.921 54.0253C125.076 54.0253 126.94 54.389 128.512 55.1163C130.113 55.8145 131.307 56.8183 132.093 58.1275C132.909 59.4368 133.258 60.9642 133.142 62.7098H126.634L126.678 62.2298C126.678 61.2697 126.313 60.4841 125.586 59.8732C124.887 59.2622 123.897 58.9567 122.616 58.9567C121.247 58.9567 120.141 59.2769 119.296 59.9168C118.452 60.5567 118.03 61.4295 118.03 62.5353C118.03 63.2624 118.263 63.9029 118.729 64.4555C119.224 64.9792 119.82 65.4445 120.519 65.852C121.218 66.23 122.223 66.7248 123.533 67.3358C125.251 68.0924 126.663 68.8048 127.769 69.4742C128.876 70.1436 129.822 71.0305 130.608 72.1363C131.395 73.2421 131.788 74.5949 131.788 76.1949C131.788 77.9406 131.307 79.4969 130.346 80.8645C129.414 82.2321 128.075 83.3084 126.328 84.0939C124.61 84.8506 122.601 85.2286 120.301 85.2286ZM165.696 63.8881C165.405 65.5176 164.75 67.045 163.73 68.4704C162.711 69.8959 161.299 71.0453 159.494 71.9181C157.718 72.7909 155.578 73.2273 153.073 73.2273H147.963L145.91 84.9231H139.752L145.168 54.4617H156.393C159.509 54.4617 161.867 55.1599 163.468 56.5564C165.07 57.9239 165.87 59.757 165.87 62.0552C165.87 62.7246 165.812 63.3356 165.696 63.8881ZM153.685 68.4268C155.345 68.4268 156.655 68.0193 157.616 67.2049C158.577 66.3904 159.188 65.2847 159.45 63.8881C159.509 63.6263 159.537 63.2483 159.537 62.7535C159.537 60.4552 158.111 59.3058 155.257 59.3058H150.453L148.837 68.4268H153.685ZM184.974 85.2286C182.412 85.2286 180.141 84.6902 178.161 83.6139C176.21 82.5081 174.696 80.9954 173.618 79.0752C172.541 77.1261 172.002 74.9004 172.002 72.3981C172.002 68.9069 172.774 65.7647 174.317 62.9717C175.889 60.1787 178.044 57.9966 180.781 56.4255C183.548 54.8254 186.649 54.0253 190.084 54.0253C192.676 54.0253 194.947 54.5635 196.898 55.64C198.878 56.7164 200.407 58.2294 201.484 60.1787C202.561 62.0989 203.1 64.2957 203.1 66.7685C203.1 70.3181 202.328 73.4892 200.785 76.2822C199.242 79.0752 197.087 81.272 194.321 82.872C191.555 84.4431 188.439 85.2286 184.974 85.2286ZM185.848 79.5989C188.031 79.5989 189.953 79.0463 191.613 77.9406C193.302 76.8348 194.598 75.351 195.5 73.4892C196.432 71.5979 196.898 69.5467 196.898 67.3358C196.898 64.9503 196.228 63.0737 194.889 61.7061C193.549 60.3385 191.671 59.655 189.254 59.655C187.1 59.655 185.178 60.2076 183.489 61.3133C181.829 62.4191 180.534 63.9029 179.602 65.7647C178.699 67.6265 178.248 69.6635 178.248 71.8744C178.248 74.26 178.903 76.1513 180.213 77.5478C181.553 78.9154 183.431 79.5989 185.848 79.5989ZM220.883 54.4617L215.511 84.9231H209.353L214.768 54.4617H220.883ZM232.864 80.2535H242.91L242.08 84.9231H225.876L231.292 54.4617H237.407L232.864 80.2535ZM260.991 59.2186L259.593 67.1176H269.857L269.027 71.8308H258.763L257.322 80.079H268.896L268.023 84.9231H250.29L255.706 54.418H273.395L272.565 59.2186H260.991ZM294.763 54.4617C297.878 54.4617 300.237 55.1745 301.838 56.6001C303.44 57.9966 304.24 59.8295 304.24 62.0989C304.24 62.6514 304.197 63.2188 304.109 63.8009C303.76 65.7794 302.857 67.5829 301.401 69.2123C299.975 70.8123 298.053 71.9328 295.636 72.5727L300.746 84.9231H293.627L289.085 73.0528H286.158L284.062 84.9231H277.904L283.319 54.4617H294.763ZM297.82 63.9318C297.878 63.4081 297.907 63.059 297.907 62.8844C297.907 61.7786 297.558 60.9206 296.859 60.3096C296.16 59.6986 295.098 59.3931 293.671 59.3931H288.561L286.945 68.5141H292.055C293.685 68.5141 294.981 68.1066 295.942 67.2921C296.932 66.4777 297.558 65.3572 297.82 63.9318ZM321.825 85.2286C318.768 85.2286 316.249 84.5451 314.269 83.1775C312.319 81.781 311.343 79.8319 311.343 77.3296C311.343 77.0677 311.372 76.675 311.43 76.1513H317.676C317.56 77.3732 317.88 78.377 318.637 79.1625C319.423 79.948 320.559 80.3408 322.044 80.3408C323.529 80.3408 324.694 80.0353 325.538 79.4243C326.411 78.7845 326.848 77.8822 326.848 76.7186C326.848 75.6423 326.397 74.7837 325.494 74.1438C324.621 73.5039 323.238 72.7909 321.345 72.0054C319.598 71.2782 318.171 70.6089 317.065 69.9979C315.987 69.3869 315.055 68.543 314.269 67.4667C313.513 66.3609 313.134 64.9792 313.134 63.3208C313.134 61.4295 313.614 59.7859 314.575 58.3894C315.565 56.9929 316.905 55.9164 318.593 55.1599C320.311 54.4035 322.262 54.0253 324.446 54.0253C326.601 54.0253 328.464 54.389 330.036 55.1163C331.638 55.8145 332.832 56.8183 333.618 58.1275C334.434 59.4368 334.783 60.9642 334.666 62.7098H328.158L328.202 62.2298C328.202 61.2697 327.838 60.4841 327.11 59.8732C326.411 59.2622 325.421 58.9567 324.14 58.9567C322.772 58.9567 321.665 59.2769 320.821 59.9168C319.977 60.5567 319.554 61.4295 319.554 62.5353C319.554 63.2624 319.787 63.9029 320.253 64.4555C320.748 64.9792 321.345 65.4445 322.044 65.852C322.742 66.23 323.747 66.7248 325.057 67.3358C326.775 68.0924 328.188 68.8048 329.294 69.4742C330.401 70.1436 331.347 71.0305 332.133 72.1363C332.919 73.2421 333.312 74.5949 333.312 76.1949C333.312 77.9406 332.832 79.4969 331.871 80.8645C330.939 82.2321 329.6 83.3084 327.853 84.0939C326.135 84.8506 324.126 85.2286 321.825 85.2286Z" fill="#EDFF1F"/>
</g>
</g>
<g style="mix-blend-mode:color-dodge" opacity="0.5" filter="url(#filter6_d_16_215)">
<g style="mix-blend-mode:color-dodge" opacity="0.5">
<path d="M42.4648 86.6923H36.3065L26.2173 65.7882L22.5048 86.6923H16.3464L21.7623 56.1872H27.877L38.0098 77.1349L41.7223 56.1872H47.837L42.4648 86.6923ZM67.1138 86.9978C64.5511 86.9978 62.28 86.4593 60.3004 85.3831C58.3492 84.2773 56.8351 82.7646 55.7577 80.8444C54.6804 78.8953 54.1417 76.6696 54.1417 74.1673C54.1417 70.676 54.9134 67.5339 56.4566 64.7408C58.0289 61.9478 60.1835 59.7658 62.9209 58.1947C65.6867 56.5945 68.7877 55.7944 72.224 55.7944C74.815 55.7944 77.0862 56.3327 79.0375 57.4092C81.0171 58.4856 82.5457 59.9987 83.6235 61.9478C84.7006 63.868 85.2395 66.0648 85.2395 68.5376C85.2395 72.0873 84.4675 75.2583 82.9246 78.0514C81.3812 80.8444 79.2263 83.0412 76.4606 84.6412C73.6942 86.2122 70.5784 86.9978 67.1138 86.9978ZM67.9874 81.3681C70.1712 81.3681 72.0929 80.8155 73.7526 79.7097C75.4413 78.604 76.7368 77.1202 77.6398 75.2583C78.5712 73.367 79.0375 71.3159 79.0375 69.1049C79.0375 66.7194 78.3676 64.8429 77.0284 63.4753C75.6886 62.1076 73.8105 61.4241 71.3941 61.4241C69.2392 61.4241 67.3175 61.9767 65.6289 63.0825C63.9692 64.1883 62.673 65.6721 61.7417 67.5339C60.8386 69.3957 60.3877 71.4327 60.3877 73.6436C60.3877 76.0291 61.0429 77.9204 62.3531 79.317C63.6923 80.6846 65.5704 81.3681 67.9874 81.3681ZM119.12 86.9978C116.063 86.9978 113.545 86.3143 111.564 84.9466C109.614 83.5501 108.638 81.601 108.638 79.0987C108.638 78.8369 108.667 78.4441 108.725 77.9204H114.971C114.855 79.1424 115.175 80.1461 115.932 80.9317C116.718 81.7172 117.854 82.11 119.339 82.11C120.824 82.11 121.988 81.8045 122.833 81.1935C123.706 80.5536 124.143 79.6513 124.143 78.4878C124.143 77.4115 123.692 76.5528 122.789 75.913C121.916 75.2731 120.533 74.5601 118.64 73.7745C116.893 73.0474 115.466 72.378 114.36 71.7671C113.283 71.1561 112.351 70.3122 111.564 69.2359C110.807 68.1301 110.429 66.7483 110.429 65.09C110.429 63.1987 110.909 61.5551 111.87 60.1585C112.86 58.762 114.2 57.6856 115.888 56.9291C117.607 56.1726 119.557 55.7944 121.741 55.7944C123.896 55.7944 125.759 56.1581 127.332 56.8855C128.933 57.5837 130.127 58.5875 130.913 59.8967C131.728 61.2059 132.078 62.7334 131.961 64.479H125.453L125.497 63.9989C125.497 63.0388 125.133 62.2533 124.405 61.6423C123.706 61.0314 122.717 60.7259 121.435 60.7259C120.067 60.7259 118.96 61.0461 118.116 61.686C117.271 62.3258 116.849 63.1987 116.849 64.3044C116.849 65.0316 117.082 65.672 117.548 66.2246C118.043 66.7483 118.64 67.2136 119.339 67.6212C120.038 67.9992 121.042 68.494 122.352 69.1049C124.071 69.8616 125.482 70.574 126.589 71.2434C127.696 71.9127 128.642 72.7997 129.428 73.9055C130.214 75.0112 130.607 76.3641 130.607 77.9641C130.607 79.7097 130.127 81.2661 129.166 82.6337C128.234 84.0013 126.895 85.0776 125.148 85.8631C123.43 86.6197 121.421 86.9978 119.12 86.9978ZM164.515 65.6573C164.224 67.2868 163.569 68.8142 162.55 70.2396C161.531 71.665 160.119 72.8144 158.313 73.6873C156.537 74.5601 154.397 74.9965 151.893 74.9965H146.783L144.73 86.6923H138.572L143.988 56.2308H155.212C158.328 56.2308 160.687 56.9291 162.288 58.3256C163.889 59.6932 164.69 61.5262 164.69 63.8244C164.69 64.4937 164.632 65.1047 164.515 65.6573ZM152.504 70.196C154.164 70.196 155.474 69.7885 156.435 68.974C157.396 68.1596 158.008 67.0538 158.27 65.6573C158.328 65.3955 158.357 65.0174 158.357 64.5226C158.357 62.2244 156.93 61.075 154.077 61.075H149.272L147.656 70.196H152.504ZM183.794 86.9978C181.232 86.9978 178.96 86.4593 176.98 85.3831C175.03 84.2773 173.516 82.7646 172.438 80.8444C171.361 78.8953 170.822 76.6696 170.822 74.1673C170.822 70.676 171.594 67.5339 173.137 64.7408C174.709 61.9478 176.864 59.7658 179.601 58.1947C182.367 56.5945 185.468 55.7944 188.904 55.7944C191.495 55.7944 193.767 56.3327 195.717 57.4092C197.698 58.4856 199.226 59.9987 200.303 61.9478C201.381 63.868 201.919 66.0648 201.919 68.5376C201.919 72.0873 201.148 75.2583 199.605 78.0514C198.062 80.8444 195.907 83.0412 193.14 84.6412C190.375 86.2122 187.259 86.9978 183.794 86.9978ZM184.667 81.3681C186.851 81.3681 188.773 80.8155 190.432 79.7097C192.122 78.604 193.417 77.1202 194.32 75.2583C195.252 73.367 195.717 71.3159 195.717 69.1049C195.717 66.7194 195.048 64.8429 193.708 63.4753C192.369 62.1076 190.491 61.4241 188.074 61.4241C185.92 61.4241 183.998 61.9767 182.309 63.0825C180.649 64.1883 179.353 65.6721 178.422 67.5339C177.519 69.3957 177.068 71.4327 177.068 73.6436C177.068 76.0291 177.723 77.9204 179.033 79.317C180.373 80.6846 182.251 81.3681 184.667 81.3681ZM219.703 56.2308L214.33 86.6923H208.172L213.588 56.2308H219.703ZM231.684 82.0227H241.73L240.9 86.6923H224.696L230.112 56.2308H236.226L231.684 82.0227ZM259.81 60.9877L258.413 68.8867H268.677L267.847 73.6H257.583L256.142 81.8481H267.716L266.842 86.6923H249.11L254.526 56.1872H272.214L271.385 60.9877H259.81ZM293.582 56.2308C296.698 56.2308 299.056 56.9437 300.658 58.3693C302.26 59.7658 303.06 61.5987 303.06 63.868C303.06 64.4206 303.016 64.9879 302.929 65.57C302.579 67.5486 301.677 69.3521 300.221 70.9815C298.794 72.5815 296.873 73.702 294.456 74.3419L299.566 86.6923H292.447L287.904 74.8219H284.978L282.881 86.6923H276.723L282.139 56.2308H293.582ZM296.64 65.7009C296.698 65.1773 296.727 64.8281 296.727 64.6536C296.727 63.5478 296.377 62.6897 295.679 62.0787C294.98 61.4678 293.917 61.1623 292.49 61.1623H287.38L285.764 70.2833H290.874C292.505 70.2833 293.801 69.8757 294.761 69.0613C295.752 68.2469 296.377 67.1264 296.64 65.7009ZM320.645 86.9978C317.588 86.9978 315.069 86.3143 313.089 84.9466C311.138 83.5501 310.163 81.601 310.163 79.0987C310.163 78.8369 310.192 78.4441 310.25 77.9204H316.496C316.379 79.1424 316.7 80.1461 317.457 80.9317C318.243 81.7172 319.378 82.11 320.863 82.11C322.348 82.11 323.513 81.8045 324.357 81.1935C325.231 80.5536 325.668 79.6513 325.668 78.4878C325.668 77.4115 325.217 76.5528 324.314 75.913C323.44 75.2731 322.057 74.5601 320.164 73.7745C318.417 73.0474 316.991 72.378 315.884 71.7671C314.807 71.1561 313.875 70.3122 313.089 69.2359C312.332 68.1301 311.953 66.7483 311.953 65.09C311.953 63.1987 312.434 61.5551 313.395 60.1585C314.385 58.762 315.724 57.6856 317.413 56.9291C319.131 56.1726 321.082 55.7944 323.265 55.7944C325.42 55.7944 327.284 56.1581 328.856 56.8855C330.458 57.5837 331.651 58.5875 332.437 59.8967C333.253 61.2059 333.603 62.7334 333.486 64.479H326.978L327.022 63.9989C327.022 63.0388 326.658 62.2533 325.93 61.6423C325.231 61.0314 324.241 60.7259 322.96 60.7259C321.592 60.7259 320.485 61.0461 319.64 61.686C318.796 62.3258 318.374 63.1987 318.374 64.3044C318.374 65.0316 318.607 65.672 319.073 66.2246C319.568 66.7483 320.164 67.2136 320.863 67.6212C321.562 67.9992 322.567 68.494 323.877 69.1049C325.595 69.8616 327.007 70.574 328.114 71.2434C329.22 71.9127 330.166 72.7997 330.953 73.9055C331.739 75.0112 332.132 76.3641 332.132 77.9641C332.132 79.7097 331.651 81.2661 330.69 82.6337C329.759 84.0013 328.419 85.0776 326.672 85.8631C324.955 86.6197 322.946 86.9978 320.645 86.9978Z" fill="#5AFFBA"/>
</g>
</g>
<g style="mix-blend-mode:color-dodge" opacity="0.9">
<g style="mix-blend-mode:color-dodge" opacity="0.9">
<g style="mix-blend-mode:color-dodge" opacity="0.9">
<path d="M139.647 53.8719L140.228 53.9774L140.355 53.2822H139.647V53.8719ZM138.774 58.6724V59.2622H139.266L139.354 58.7779L138.774 58.6724ZM130.693 58.6724V58.0827H130.199L130.113 58.5697L130.693 58.6724ZM126.151 84.3333V84.9231H126.646L126.732 84.4359L126.151 84.3333ZM119.993 84.3333L119.412 84.2307L119.289 84.9231H119.993V84.3333ZM124.535 58.6724L125.116 58.7752L125.239 58.0827H124.535V58.6724ZM116.411 58.6724L115.831 58.5669L115.704 59.2622H116.411V58.6724ZM117.285 53.8719V53.2822H116.793L116.704 53.7664L117.285 53.8719ZM139.066 53.7664L138.193 58.5669L139.354 58.7779L140.228 53.9774L139.066 53.7664ZM138.774 58.0827H130.693V59.2622H138.774V58.0827ZM130.113 58.5697L125.57 84.2307L126.732 84.4359L131.275 58.7752L130.113 58.5697ZM126.151 83.7436H119.993V84.9231H126.151V83.7436ZM120.574 84.4359L125.116 58.7752L123.954 58.5697L119.412 84.2307L120.574 84.4359ZM124.535 58.0827H116.411V59.2622H124.535V58.0827ZM116.992 58.7779L117.866 53.9774L116.704 53.7664L115.831 58.5669L116.992 58.7779ZM117.285 54.4617H139.647V53.2822H117.285V54.4617ZM154.591 53.8719L155.172 53.9742L155.294 53.2822H154.591V53.8719ZM149.219 84.3333V84.9231H149.714L149.8 84.4359L149.219 84.3333ZM143.06 84.3333L142.48 84.2301L142.356 84.9231H143.06V84.3333ZM148.476 53.8719V53.2822H147.982L147.895 53.7688L148.476 53.8719ZM154.01 53.7696L148.638 84.2307L149.8 84.4359L155.172 53.9742L154.01 53.7696ZM149.219 83.7436H143.06V84.9231H149.219V83.7436ZM143.642 84.4365L149.058 53.9751L147.895 53.7688L142.48 84.2301L143.642 84.4365ZM148.476 54.4617H154.591V53.2822H148.476V54.4617ZM185.746 53.8719L186.327 53.9774L186.453 53.2822H185.746V53.8719ZM184.873 58.6724V59.2622H185.365L185.453 58.7779L184.873 58.6724ZM176.792 58.6724V58.0827H176.297L176.211 58.5697L176.792 58.6724ZM172.25 84.3333V84.9231H172.745L172.832 84.4359L172.25 84.3333ZM166.092 84.3333L165.51 84.2307L165.388 84.9231H166.092V84.3333ZM170.634 58.6724L171.216 58.7752L171.338 58.0827H170.634V58.6724ZM162.51 58.6724L161.93 58.5669L161.803 59.2622H162.51V58.6724ZM163.384 53.8719V53.2822H162.891L162.803 53.7664L163.384 53.8719ZM185.165 53.7664L184.292 58.5669L185.453 58.7779L186.327 53.9774L185.165 53.7664ZM184.873 58.0827H176.792V59.2622H184.873V58.0827ZM176.211 58.5697L171.669 84.2307L172.832 84.4359L177.374 58.7752L176.211 58.5697ZM172.25 83.7436H166.092V84.9231H172.25V83.7436ZM166.673 84.4359L171.216 58.7752L170.053 58.5697L165.51 84.2307L166.673 84.4359ZM170.634 58.0827H162.51V59.2622H170.634V58.0827ZM163.091 58.7779L163.965 53.9774L162.803 53.7664L161.93 58.5669L163.091 58.7779ZM163.384 54.4617H185.746V53.2822H163.384V54.4617ZM196.148 79.6637L195.566 79.5617L195.445 80.2535H196.148V79.6637ZM206.193 79.6637L206.774 79.767L206.897 79.074H206.193V79.6637ZM205.363 84.3333V84.9231H205.858L205.945 84.4365L205.363 84.3333ZM189.159 84.3333L188.578 84.2301L188.455 84.9231H189.159V84.3333ZM194.575 53.8719V53.2822H194.081L193.994 53.7688L194.575 53.8719ZM200.69 53.8719L201.271 53.9741L201.393 53.2822H200.69V53.8719ZM196.148 80.2535H206.193V79.074H196.148V80.2535ZM205.612 79.5605L204.782 84.2301L205.945 84.4365L206.774 79.767L205.612 79.5605ZM205.363 83.7436H189.159V84.9231H205.363V83.7436ZM189.741 84.4365L195.157 53.9751L193.994 53.7688L188.578 84.2301L189.741 84.4365ZM194.575 54.4617H200.69V53.2822H194.575V54.4617ZM200.109 53.7697L195.566 79.5617L196.729 79.7658L201.271 53.9741L200.109 53.7697ZM224.274 58.6288V58.039H223.779L223.693 58.5261L224.274 58.6288ZM222.877 66.5278L222.295 66.4252L222.173 67.1175H222.877V66.5278ZM233.141 66.5278L233.722 66.6298L233.844 65.9381H233.141V66.5278ZM232.311 71.241V71.8308H232.806L232.892 71.3431L232.311 71.241ZM222.047 71.241V70.6513H221.551L221.466 71.1396L222.047 71.241ZM220.606 79.4892L220.024 79.3877L219.903 80.0789H220.606V79.4892ZM232.18 79.4892L232.761 79.5936L232.886 78.8994H232.18V79.4892ZM231.306 84.3333V84.9231H231.8L231.887 84.4377L231.306 84.3333ZM213.574 84.3333L212.992 84.2301L212.87 84.9231H213.574V84.3333ZM218.99 53.8283V53.2385H218.495L218.408 53.7252L218.99 53.8283ZM236.679 53.8283L237.26 53.9286L237.379 53.2385H236.679V53.8283ZM235.849 58.6288V59.2185H236.346L236.43 58.7292L235.849 58.6288ZM223.693 58.5261L222.295 66.4252L223.458 66.6304L224.856 58.7315L223.693 58.5261ZM222.877 67.1175H233.141V65.9381H222.877V67.1175ZM232.559 66.4258L231.73 71.139L232.892 71.3431L233.722 66.6298L232.559 66.4258ZM232.311 70.6513H222.047V71.8308H232.311V70.6513ZM221.466 71.1396L220.024 79.3877L221.187 79.5906L222.628 71.3425L221.466 71.1396ZM220.606 80.0789H232.18V78.8994H220.606V80.0789ZM231.599 79.3848L230.726 84.2289L231.887 84.4377L232.761 79.5936L231.599 79.3848ZM231.306 83.7436H213.574V84.9231H231.306V83.7436ZM214.155 84.4365L219.571 53.9313L218.408 53.7252L212.992 84.2301L214.155 84.4365ZM218.99 54.418H236.679V53.2385H218.99V54.418ZM236.097 53.7279L235.267 58.5284L236.43 58.7292L237.26 53.9286L236.097 53.7279ZM235.849 58.039H224.274V59.2185H235.849V58.039Z" fill="white"/>
</g>
</g>
</g>
</g>
</g>
<defs>
<filter id="filter0_d_16_215" x="-5.42419" y="36.256" width="349.161" height="63.2034" filterUnits="userSpaceOnUse" color-interpolation-filters="sRGB">
<feFlood flood-opacity="0" result="BackgroundImageFix"/>
<feColorMatrix in="SourceAlpha" type="matrix" values="0 0 0 0 0 0 0 0 0 0 0 0 0 0 0 0 0 0 127 0" result="hardAlpha"/>
<feOffset dx="-4"/>
<feGaussianBlur stdDeviation="8"/>
<feColorMatrix type="matrix" values="0 0 0 0 0.00833333 0 0 0 0 0.167 0 0 0 0 1 0 0 0 1 0"/>
<feBlend mode="normal" in2="BackgroundImageFix" result="effect1_dropShadow_16_215"/>
<feBlend mode="normal" in="SourceGraphic" in2="effect1_dropShadow_16_215" result="shape"/>
</filter>
<filter id="filter1_d_16_215" x="11.5269" y="46.0253" width="333.161" height="47.2034" filterUnits="userSpaceOnUse" color-interpolation-filters="sRGB">
<feFlood flood-opacity="0" result="BackgroundImageFix"/>
<feColorMatrix in="SourceAlpha" type="matrix" values="0 0 0 0 0 0 0 0 0 0 0 0 0 0 0 0 0 0 127 0" result="hardAlpha"/>
<feOffset dx="2"/>
<feGaussianBlur stdDeviation="4"/>
<feColorMatrix type="matrix" values="0 0 0 0 1 0 0 0 0 1 0 0 0 0 0.180392 0 0 0 0.6 0"/>
<feBlend mode="normal" in2="BackgroundImageFix" result="effect1_dropShadow_16_215"/>
<feBlend mode="normal" in="SourceGraphic" in2="effect1_dropShadow_16_215" result="shape"/>
</filter>
<filter id="filter2_d_16_215" x="12.3464" y="53.7944" width="325.161" height="39.2034" filterUnits="userSpaceOnUse" color-interpolation-filters="sRGB">
<feFlood flood-opacity="0" result="BackgroundImageFix"/>
<feColorMatrix in="SourceAlpha" type="matrix" values="0 0 0 0 0 0 0 0 0 0 0 0 0 0 0 0 0 0 127 0" result="hardAlpha"/>
<feOffset dy="2"/>
<feGaussianBlur stdDeviation="2"/>
<feColorMatrix type="matrix" values="0 0 0 0 0.352941 0 0 0 0 1 0 0 0 0 0.960784 0 0 0 0.25 0"/>
<feBlend mode="normal" in2="BackgroundImageFix" result="effect1_dropShadow_16_215"/>
<feBlend mode="normal" in="SourceGraphic" in2="effect1_dropShadow_16_215" result="shape"/>
</filter>
<filter id="filter3_f_16_215" x="-9.42419" y="28.256" width="368.703" height="82.7418" filterUnits="userSpaceOnUse" color-interpolation-filters="sRGB">
<feFlood flood-opacity="0" result="BackgroundImageFix"/>
<feBlend mode="normal" in="SourceGraphic" in2="BackgroundImageFix" result="shape"/>
<feGaussianBlur stdDeviation="12" result="effect1_foregroundBlur_16_215"/>
</filter>
<filter id="filter4_d_16_215" x="-5.42419" y="36.256" width="349.161" height="63.2034" filterUnits="userSpaceOnUse" color-interpolation-filters="sRGB">
<feFlood flood-opacity="0" result="BackgroundImageFix"/>
<feColorMatrix in="SourceAlpha" type="matrix" values="0 0 0 0 0 0 0 0 0 0 0 0 0 0 0 0 0 0 127 0" result="hardAlpha"/>
<feOffset dx="-4"/>
<feGaussianBlur stdDeviation="8"/>
<feColorMatrix type="matrix" values="0 0 0 0 0.00833333 0 0 0 0 0.167 0 0 0 0 1 0 0 0 1 0"/>
<feBlend mode="normal" in2="BackgroundImageFix" result="effect1_dropShadow_16_215"/>
<feBlend mode="normal" in="SourceGraphic" in2="effect1_dropShadow_16_215" result="shape"/>
</filter>
<filter id="filter5_d_16_215" x="11.5269" y="46.0253" width="333.161" height="47.2034" filterUnits="userSpaceOnUse" color-interpolation-filters="sRGB">
<feFlood flood-opacity="0" result="BackgroundImageFix"/>
<feColorMatrix in="SourceAlpha" type="matrix" values="0 0 0 0 0 0 0 0 0 0 0 0 0 0 0 0 0 0 127 0" result="hardAlpha"/>
<feOffset dx="2"/>
<feGaussianBlur stdDeviation="4"/>
<feColorMatrix type="matrix" values="0 0 0 0 1 0 0 0 0 1 0 0 0 0 0.180392 0 0 0 0.6 0"/>
<feBlend mode="normal" in2="BackgroundImageFix" result="effect1_dropShadow_16_215"/>
<feBlend mode="normal" in="SourceGraphic" in2="effect1_dropShadow_16_215" result="shape"/>
</filter>
<filter id="filter6_d_16_215" x="12.3464" y="53.7944" width="325.161" height="39.2034" filterUnits="userSpaceOnUse" color-interpolation-filters="sRGB">
<feFlood flood-opacity="0" result="BackgroundImageFix"/>
<feColorMatrix in="SourceAlpha" type="matrix" values="0 0 0 0 0 0 0 0 0 0 0 0 0 0 0 0 0 0 127 0" result="hardAlpha"/>
<feOffset dy="2"/>
<feGaussianBlur stdDeviation="2"/>
<feColorMatrix type="matrix" values="0 0 0 0 0.352941 0 0 0 0 1 0 0 0 0 0.960784 0 0 0 0.25 0"/>
<feBlend mode="normal" in2="BackgroundImageFix" result="effect1_dropShadow_16_215"/>
<feBlend mode="normal" in="SourceGraphic" in2="effect1_dropShadow_16_215" result="shape"/>
</filter>
<clipPath id="clip0_16_215">
<rect width="350" height="161" fill="white"/>
</clipPath>
</defs>
</svg>
