<svg width="24" height="24" viewBox="0 0 24 24" fill="none" xmlns="http://www.w3.org/2000/svg">
<path d="M17.0064 14.6667H15.9773L15.6126 14.3067C16.8892 12.7867 17.6577 10.8133 17.6577 8.66667C17.6577 3.88 13.8671 0 9.19068 0C4.51427 0 0.723633 3.88 0.723633 8.66667C0.723633 13.4533 4.51427 17.3333 9.19068 17.3333C11.2879 17.3333 13.2158 16.5467 14.7008 15.24L15.0525 15.6133V16.6667L21.5656 23.32L23.5065 21.3333L17.0064 14.6667V14.6667ZM9.19068 14.6667C5.94715 14.6667 3.32888 11.9867 3.32888 8.66667C3.32888 5.34667 5.94715 2.66667 9.19068 2.66667C12.4342 2.66667 15.0525 5.34667 15.0525 8.66667C15.0525 11.9867 12.4342 14.6667 9.19068 14.6667Z" fill="white"/>
</svg>
